<?xml version="1.0" encoding="UTF-8" standalone="no"?>
<svg height="318.51709" viewBox="0 0 299.99999 318.5171" width="300" xmlns="http://www.w3.org/2000/svg">
   <path d="m190.58618 318.51708c-.93168 0-1.86335-.11646-2.79503-.29115-1.04814-.17469-12.05357-2.32919-31.96817-10.83074-1.28105-.52407-2.50388-1.04814-3.72671-1.57221l-2.03804-.87345-2.03804.87345c-1.1646.52407-2.44566 1.04814-3.72671 1.57221-19.79814 8.44332-31.03649 10.65605-32.0264 10.83074-.87345.17469-1.80512.29115-2.7368.29115-6.57997 0-10.88898-5.4736-10.94721-9.25854-.0582-2.38742 1.63044-4.25078 3.9014-4.36724.17469 0 .40761 0 .69876 0 9.54969-.17469 20.14752-2.09627 31.61879-5.70652-1.51398-.40761-2.91149-.69876-4.30901-.87344-1.16459-.17469-2.44565-.23292-4.19254-.23292-.98991 0-5.41538.11646-6.69643.11646-2.15451 0-4.01786-.0582-5.82298-.23292-7.97749-.69876-11.23836-2.67858-13.56755-4.71662-1.51398-1.33928-2.38742-3.08618-2.38742-4.8913 0-1.28106.40761-2.50389 1.04813-3.55202-.29115-.11646-.69875-.17469-1.10636-.29115-.29115.11646-.64053.29115-.81522.40761-1.51398.81522-3.84317 2.03804-6.98758 2.91149-2.62034.69876-4.65838 1.04814-6.52174 1.04814-2.1545 0-4.07608-.46584-5.82298-1.51398-2.56211-1.45575-4.07609-3.84317-4.07609-6.52174 0-.87345.17469-1.74689.46584-2.56211-.29115.0582-.58229.11646-.93167.23292-1.39752.34938-2.96972.69876-4.71662.69876-1.51397 0-2.91149-.29115-4.25078-.87345-3.08618-1.33929-5.00776-4.13432-5.00776-7.2205 0-.81522.11646-1.63043.34938-2.38742-1.57221-1.33929-2.21273-2.79503-2.44565-3.9014-.34938-1.63043 0-3.14441.64053-4.42546-1.39752-.5823-3.37733-1.57221-4.65839-3.49379-.75699.34938-1.51397.64053-2.27096.93167l-3.3191 1.28106-30.04659-42.85714 6.28882-1.63044c1.33929-.34938 2.67858-.69875 3.95963-1.16459-2.03804-.98991-3.61025-2.09628-4.65838-3.02795-1.7469-1.63044-2.62035-3.43556-2.62035-5.47361 0-1.04813.23292-2.09627.69876-3.02795-2.96972-.17469-5.41537-.93167-7.22049-2.21273-2.3292-1.68866-3.49379-3.72671-3.49379-6.11413 0-2.79503 1.33928-5.00776 3.55202-6.0559-1.1646-.5823-2.38743-1.39752-3.66848-2.67857-1.68867-1.68867-2.67857-3.95963-2.67857-6.40528 0-1.33929.29115-2.62034.87344-3.84317-.58229-.46584-1.16459-.87345-1.86335-1.33928-.98991-.64053-1.97981-1.28106-2.79503-2.21274-.81522-.93167-1.92159-2.32919-1.92159-4.42546 0-2.3292 1.28106-4.36724 3.26087-5.35715-.29115-.34938-.64052-.69875-.93167-1.04813-2.15451-2.44566-3.02795-5.00777-2.67857-7.86103.23291-1.97981 1.22282-3.66848 2.56211-4.77484-.81522-.75699-1.45575-1.51398-1.86336-2.15451-1.39751-1.97981-2.09627-3.78493-2.09627-5.29891 0-1.97981.69876-3.72671 2.03804-4.94953.64053-.5823 1.33929-1.04814 2.15451-1.28106-.81522-.64053-1.7469-1.39751-2.62035-2.56211-.69875-.93168-1.63043-2.32919-1.63043-4.30901 0-3.43556 2.62034-6.23059 5.93944-6.57997-.69876-1.39751-1.1646-2.85326-1.28105-4.48369-.11646-1.86336.58229-3.66848 1.86335-5.066 1.33928-1.39751 3.26087-2.27096 5.24068-2.27096.5823 0 1.1646.0582 1.68867.17469-.52407-.81522-1.22283-2.09627-1.22283-3.78494 0-1.86335.75699-3.66847 2.09627-4.94953.64053-.5823 1.33929-1.04814 2.09628-1.33929-.69876-.69875-1.1646-1.22282-1.63044-1.86335-.75698-1.10637-1.63043-2.50388-1.63043-4.25078 0-2.50388 1.5722-4.71661 3.84317-5.64829-.64053-1.28105-1.28106-3.02795-1.22283-5.18245.17469-3.55202 3.02795-6.34705 6.52174-6.34705.87345 0 3.55202.29115 5.41537 3.26087.52407-.17469 1.1646-.34938 1.86336-.34938 1.92158 0 3.84316.93168 5.00776 2.44565.64053.81522.98991 1.7469 1.10637 2.67857.11646 0 .29114 0 .46583 0 .11646 0 .29115 0 .40761 0 0-.0582 0-.0582 0-.11646.29115-3.08618 2.7368-5.41537 5.70652-5.41537 1.22283 0 2.3292.34938 3.26087.98991.34938-.93168.75699-1.92159 1.10637-2.79503 1.1646-2.62035 3.78494-4.30901 6.57997-4.30901.0582 0 .17469 0 .23292 0-.81522-.64053-1.63044-1.22283-2.44565-1.86335l-3.9014-2.85327 31.67702-36.97593 2.96972 1.10637c5.82298 2.1545 11.99534 3.26087 18.28416 3.26087 19.21584 0 36.85947-10.48137 46.11801-27.30978l3.95963-7.2205 3.95963 7.2205c9.25854 16.82841 26.9604 27.30978 46.11801 27.30978 6.28882 0 12.46118-1.10637 18.28416-3.26087l2.96972-1.10637 31.4441 37.03416-3.9014 2.85327c-.81521.58229-1.63043 1.22282-2.44565 1.86335.0582 0 .17469 0 .23292 0 2.79503 0 5.41537 1.68866 6.57997 4.30901.40761.87344.75699 1.86335 1.10637 2.79503.93167-.64053 2.03804-.98991 3.26087-.98991 2.96972 0 5.41537 2.32919 5.70652 5.41537 0 .0582 0 .0582 0 .11646.11646 0 .29115 0 .40761 0 .17469 0 .29114 0 .46583 0 .11646-.93167.46584-1.92158 1.10637-2.67857 1.1646-1.51397 3.08618-2.44565 5.00776-2.44565.69876 0 1.33929.11646 1.86336.34938 1.86335-2.96972 4.54192-3.26087 5.41537-3.26087 3.49379 0 6.34705 2.79503 6.52174 6.34705.11646 2.1545-.5823 3.9014-1.22283 5.18245 2.27097.93168 3.84317 3.08618 3.84317 5.64829 0 1.80513-.81522 3.14441-1.63043 4.25078-.40761.64053-.87345 1.1646-1.63044 1.86335.75699.29115 1.45575.75699 2.09628 1.33929 1.33928 1.28106 2.09627 3.08618 2.09627 4.94953 0 1.68867-.64053 2.96972-1.22283 3.78494.52407-.11646 1.10637-.17469 1.68867-.17469 1.97981 0 3.84317.81522 5.24068 2.27096 1.28106 1.39752 1.97981 3.14441 1.86335 5.00777-.11645 1.63043-.58229 3.08618-1.28105 4.48369 3.3191.34938 5.93944 3.14441 5.93944 6.57997 0 1.97982-.93168 3.43556-1.63043 4.30901-.93168 1.1646-1.80513 1.97981-2.62035 2.56211.81522.29115 1.51398.69876 2.15451 1.28106 1.28105 1.22282 2.03804 3.02795 2.03804 4.94953 0 1.51398-.69876 3.26087-2.09627 5.29891-.40761.5823-1.04814 1.33929-1.86336 2.15451 1.39752 1.10636 2.3292 2.79503 2.56211 4.77484.34938 2.85326-.52406 5.41537-2.67857 7.86103-.34938.34938-.64052.69875-.93167 1.04813 1.97981 1.04814 3.26087 3.02795 3.26087 5.35715 0 2.09627-1.10637 3.55201-1.92159 4.42546-.87345.93168-1.86335 1.57221-2.79503 2.21274-.64053.4076-1.28106.81521-1.86335 1.33928.58229 1.1646.87344 2.50388.87344 3.84317 0 2.44565-.93167 4.71661-2.67857 6.40528-1.28105 1.28105-2.50388 2.09627-3.66848 2.67857 2.21274 1.04814 3.55202 3.26087 3.55202 6.0559 0 2.38742-1.16459 4.42547-3.49379 6.11413-1.80512 1.28106-4.19254 2.03804-7.22049 2.21273.46584.93168.69876 1.92159.69876 3.02795 0 1.97982-.87345 3.84317-2.62035 5.47361-1.04813.93167-2.62034 2.03804-4.65838 3.02795 1.33928.40761 2.67857.81521 3.95963 1.16459l6.28882 1.63044-30.04659 42.85714-3.3191-1.28106c-.75699-.29114-1.51397-.58229-2.27096-.93167-1.28106 1.92158-3.26087 2.91149-4.65839 3.49379.64053 1.22282.98991 2.79503.64053 4.42546-.23292 1.10637-.87344 2.62034-2.44565 3.9014.23292.75699.34938 1.5722.34938 2.38742 0 3.08618-1.92158 5.88121-5.00776 7.2205-1.33929.5823-2.73681.87345-4.25078.87345-1.68867 0-3.3191-.40761-4.71662-.69876-.29115-.0582-.64052-.17469-.93167-.23292.34938.81522.46584 1.68866.46584 2.56211 0 2.67857-1.45575 5.06599-4.07609 6.52174-1.7469.98991-3.66848 1.51398-5.82298 1.51398-1.80513 0-3.9014-.34938-6.52174-1.04814-3.20264-.87345-5.4736-2.09627-6.98758-2.91149-.17469-.11646-.52407-.29115-.81522-.40761-.40761.11646-.81521.23292-1.10636.29115.69875.98991 1.04813 2.21273 1.04813 3.55202 0 1.80512-.81521 3.55202-2.38742 4.8913-2.32919 2.03804-5.59006 4.01786-13.56755 4.71662-1.80512.17469-3.66847.23292-5.82298.23292-1.28105 0-5.76475-.11646-6.69643-.11646-1.74689 0-3.02795.0582-4.19254.23292-1.39752.17468-2.79503.46583-4.30901.87344 11.47127 3.66848 22.12733 5.59006 31.61879 5.70652.29115 0 .52407 0 .69876 0 2.27096.0582 3.95963 1.97982 3.9014 4.36724.0582 3.78494-4.25078 9.25854-10.83075 9.25854zm-65.68323-49.08773c3.66848 0 6.52174 2.62034 7.56988 6.81289.17469.69875 1.68866 6.81288 4.94953 9.66614 2.21273 1.92159 5.64829 4.54193 12.6941 7.62811 7.04581-3.08618 10.48137-5.70652 12.6941-7.62811 3.26087-2.79503 4.77484-8.96739 4.94953-9.66614.98991-4.19255 3.9014-6.81289 7.56988-6.81289.75699 0 1.51397.11646 2.27096.34938-.0582-1.51398 0-2.85326.11646-4.07609-8.67624 3.55202-18.10947 5.41537-27.5427 5.41537-9.43323 0-18.86646-1.86335-27.5427-5.41537.11646 1.22283.11646 2.56211.11646 4.07609.64053-.23292 1.39751-.34938 2.1545-.34938zm-63.12112-95.03106c.17469 0 .34938.0582.52407.0582 3.66848.52407 6.46351 3.95963 6.52174 8.03572 0 .58229 0 1.16459-.0582 1.86335 10.36491-13.97516 16.0132-30.8618 16.0132-48.50544 0-21.83618-8.90916-42.74068-24.2236-57.93866.0582.29115.11646.64053.11646.93168.11646 1.97981-.40761 3.3191-.81522 4.54192-.11646.29115-.23292.5823-.29115.87345 2.79503.69876 4.83307 3.14441 4.83307 6.11413 0 .93168-.23292 1.86335-.64052 2.7368 1.10636.34938 2.1545.93168 2.96972 1.80513.93167.9899 1.63043 2.21273 1.92158 3.55201.29115 1.22283.29115 2.38743.0582 3.61025-.17469 1.04814-.5823 2.09628-1.22283 3.20264-.4076.75699-.87344 1.39752-1.33928 1.97982 0 0-.11646.17469-.17469.23292.0582.0582.11646.0582.17469.11646.69876.46583 1.74689 1.33928 2.50388 2.62034.34938.5823.64053 1.22282.81522 1.92158.11646.34938.17469.69876.17469 1.10637 0 .23292 0 .34938.0582.46584v.29114.23292c-.0582 1.57221-.69876 3.14441-1.80513 4.30901-.93167.98991-1.97981 1.57221-2.79503 1.97981-.23292.11646-.46584.23292-.75699.34938.17469.29115.34938.5823.46584.87345.17469.46584.29115.87345.40761 1.33929v.11646l.0582.29114v.40761.23292c0 .11646 0 .17469 0 .29115-.0582.81522-.29115 1.63044-.64053 2.38742-.29115.64053-.69875 1.1646-1.22282 1.68867.46584.98991.75698 2.09627.75698 3.20264.0582 2.96972-.4076 4.07609-1.86335 6.98758l-.17469.4076c-.34938.69876-1.1646 2.3292-1.04814 2.73681v0c0 0 .0582.11646.40761.4076 2.96972 2.21274 3.55202 4.71662 3.55202 6.40528 0 2.44566-1.16459 4.65839-3.26087 6.23059-.40761.29115-.81522.52407-1.22282.69876 3.08618.81522 5.35714 3.61025 5.53183 6.98758.17469 3.49379-.87345 5.4736-2.09627 7.68633l-.29115.5823c-.34938.64053-.69876 1.22283-.98991 1.80513-.34938.5823-.69876 1.22282-.93168 1.74689zm177.89208-96.4868c-15.31444 15.19798-24.2236 36.10248-24.2236 57.93866 0 17.64364 5.64829 34.53028 16.0132 48.50544-.0582-.69876-.0582-1.28106-.0582-1.86335.0582-4.01786 2.85326-7.45342 6.52174-8.03572.17469 0 .34938-.0582.52407-.0582-.29115-.52407-.64053-1.16459-.93168-1.63043-.29115-.52407-.69876-1.1646-.98991-1.80513l-.29115-.5823c-1.22282-2.27096-2.21273-4.19254-2.09627-7.68633.17469-3.37733 2.44565-6.17236 5.53183-6.98758-.40761-.17469-.81521-.40761-1.22282-.69876-2.03805-1.51397-3.26087-3.78493-3.26087-6.23059 0-1.68866.64053-4.19254 3.55202-6.40528.34937-.23292.4076-.4076.4076-.4076.0582-.40761-.69875-2.03805-1.04813-2.73681l-.17469-.34937c-1.45575-2.96973-1.86336-4.01786-1.86336-6.98758 0-1.10637.29115-2.21274.75699-3.20264-.52407-.52407-.93167-1.04814-1.22282-1.68867-.34938-.69875-.5823-1.5722-.64053-2.38742 0-.0582 0-.17469 0-.23292v-.34938-.34938l.0582-.34938v-.0582c.0582-.46584.23292-.93168.40761-1.33929.17469-.34938.29115-.64053.46584-.93168-.23292-.11646-.52407-.23292-.75699-.34938-.81522-.40761-1.86336-.9899-2.79503-2.03804-1.04814-1.10637-1.7469-2.7368-1.7469-4.30901v-.23292-.23291c0-.17469 0-.34938.0582-.52407.0582-.34938.11646-.69876.17469-1.10637.17469-.64053.46584-1.33929.81522-1.92158.75699-1.22283 1.80512-2.09628 2.50388-2.62034.0582-.0582.0582-.0582.11646-.11646-.0582-.0582-.17469-.23292-.17469-.23292-.40761-.5823-.87345-1.22283-1.33928-1.97982-.64053-1.04813-1.04814-2.09627-1.22283-3.14441-.23292-1.22282-.17469-2.38742.0582-3.55202.34938-1.39751.98991-2.62034 1.92158-3.61024.81522-.87345 1.86336-1.45575 2.96972-1.80513-.40761-.81522-.64052-1.74689-.64052-2.7368 0-2.96972 2.03804-5.4736 4.83307-6.11413-.11646-.29115-.23292-.5823-.29115-.87345-.46584-1.22282-.93168-2.56211-.81522-4.54192 0-.40761.0582-.69876.11646-1.04814z" fill="none" stroke-width=".58229816"/>
   <path d="m289.28571 148.95186c2.96972-.9899 5.59007-3.49379 6.52174-4.83307.5823-.87345 1.63044-2.56211 1.63044-3.9014 0-1.28105-.46584-2.44565-1.22283-3.20264-.69876-.69876-1.68866-.98991-2.7368-.93168-.40761 0-.81522.0582-1.1646.11646-1.51397.23292-1.51397.11646-1.68866-.29115-.17469-.58229.40761-1.45574 1.80512-2.56211.40761-.29115.75699-.5823 1.10637-.81521.98991-.69876 1.92158-1.39752 2.91149-2.67858.52407-.69875 1.10637-1.63043 1.10637-2.79503 0-2.27096-1.86336-4.13431-4.13432-4.13431v0c-1.04814 0-1.86335.4076-2.50388.75698-.87345.46584-1.04814.46584-1.28106.29115-.11646-.34938.69876-1.74689 1.10637-2.44565 1.10637-1.92158 2.03804-3.72671 2.1545-5.70652.0582-1.1646-.34938-2.32919-1.16459-3.20264-.87345-.93168-2.15451-1.45575-3.43556-1.45575-1.63044 0-3.14441.87345-4.01786 2.3292-.64053 1.10636-.98991 2.27096-1.33929 3.3191-.34937 1.16459-.69875 2.21273-1.16459 2.32919-.29115.0582-.52407-.11646-1.04814-1.28106-.0582-.17469-.17469-.34938-.23292-.46584-.69876-1.33928-2.09627-2.1545-3.61025-2.1545-.11646 0-.23292 0-.4076 0 .17468-.69876.69875-1.45574 2.27096-2.50388 2.7368-1.92158 4.309-3.26087 5.41537-4.71662.52407-.64052 1.1646-1.63043 1.1646-2.96972 0-1.16459-.46584-2.32919-1.33929-3.14441-.81522-.81521-1.86335-1.22282-3.02795-1.16459-1.10637.0582-1.80512-.0582-1.97981-.29115-.23292-.29115-.0582-.93168.87344-1.68867 1.92159-1.63043 2.73681-2.38742 3.3191-3.26087.64053-.87344 1.1646-1.80512 1.1646-2.85326 0-1.92158-1.5722-3.55202-3.61025-3.61025-.5823 0-.93168-.17468-1.10636-.34937 0-.0582-.0582-.0582-.0582-.11646.0582-.46584.34937-1.04814.69875-1.80513.64053-1.22282 1.45575-2.79503 1.39752-4.83307-.11646-2.21274-1.86336-3.95963-4.01786-3.95963-.87345 0-2.96972.34938-4.13432 3.78494-.11645.29115-.17468.40761-.23291.40761-.0582 0-.17469-.0582-.40761-.23292l-.11646-.0582c-.64053-.46584-1.39752-.98991-2.44565-.98991-1.1646 0-2.38743.5823-3.08619 1.45575-.58229.69875-.75698 1.5722-.52406 2.38742.46584 1.80512.17469 2.27096.17469 2.32919-.0582.0582-.23292.11646-.5823.17469-.11646 0-.23292-.11646-.52407-.34938-.40761-.34938-1.04814-.87345-1.97981-.87345-1.10637 0-1.80513.46584-2.15451.87345-.87344.98991-.87344 2.44565-.81521 3.49379.0582.81522.11646 1.28106.11646 1.63044.0582.46583.0582.87344.11645 1.74689-.0582-.0582-.11645-.11646-.17468-.11646-.29115-.23292-.5823-.40761-.81522-.64053-.52407-.52407-.69876-.64053-.0582-2.91149.75699-2.67857 1.04813-4.07609.87345-6.40528-.17469-1.80512-1.51398-3.14441-3.26087-3.14441-1.10637 0-2.09628.52407-2.67858 1.39752-.58229.93167-1.10636 1.28105-1.39751 1.22282-.23292-.0582-.5823-.34938-.75699-1.04813-.40761-1.22283-1.10637-3.3191-1.80512-4.83308-.75699-1.74689-2.50389-2.85326-4.30901-2.85326-2.56211 0-4.54192 1.97982-4.71661 4.65839-.0582 1.45574.29114 2.44565.64052 3.55202.11646.4076.29115.81521.46584 1.28105.23292.69876.5823 1.97981.29115 2.38742-.17469.23292-.64053.34938-1.28105.34938-2.15451.0582-3.84317 1.68867-3.84317 3.84317 0 1.33929.75699 2.62034 1.97981 3.3191.5823.34938 1.10637.64053 1.63044.87345 1.04813.52406 1.63043.81521 1.74689 1.33928.17469.69876-.29115 1.33929-1.1646 1.7469l-.29114-.46584c-.11646-.23292-.29115-.40761-.46584-.5823-.34938-.34938-.75699-.64053-1.1646-.87345-.40761-.23292-.87345-.34938-1.33929-.40761-.11645 0-.23291-.0582-.34937-.0582-.17469 0-.17469 0-.29115 0-.29115 0-.46584 0-.75699.0582-.93168.11646-1.86335.64053-2.50388 1.28106-.64053.69876-1.10637 1.51398-1.28106 2.38742-.17469.87345-.23292 1.7469-.0582 2.62034.17469.87345.52407 1.68867.93168 2.38743.40761.69875.81522 1.28105 1.28105 1.86335.40761.5823.81522 1.10637.93168 1.57221.0582.23291.0582.34937.0582.46583 0 .11646-.11646.29115-.23292.46584-.29115.40761-.81522.81522-1.33928 1.22283-.64053.46584-1.33929 1.10637-1.80513 1.86335-.23292.40761-.40761.81522-.52407 1.28106-.0582.23292-.11646.46584-.11646.69876 0 .17469 0 .23292 0 .34938v.17468.17469c0 .93168.46584 1.97982 1.10637 2.67858.64053.69875 1.39752 1.10636 2.09627 1.45574.69876.34938 1.51398.5823 2.03805.81522.52407.23292 1.04813.64053 1.10636.81522.0582.11646.0582.11646 0 .23291-.0582.11646-.11646.34938-.29115.5823-.34937.46584-.9899 1.04814-1.39751 1.97982-.11646.23292-.17469.46584-.23292.75698v.23292.17469.0582.11646.0582c0 .0582 0 .11646 0 .17469.0582.46584.17469.98991.40761 1.45575.46584.93167 1.22282 1.5722 2.09627 1.92158.17469.0582.34938.11646.52407.17469-1.10637.93168-1.86335 2.32919-1.86335 3.9014 0 2.44565.23292 3.14441 1.63043 5.88121l.17469.34938c1.39752 2.85326 2.09627 4.60015-.11646 6.23059-1.68866 1.28105-2.56211 2.7368-2.56211 4.42546 0 1.63044.81522 3.14441 2.27096 4.25078.75699.5823 1.7469.87345 2.62034 1.10637 1.97982.58229 2.79503.93167 2.85326 2.32919.0582 1.22283-1.16459 1.86335-1.74689 2.03804-.69876-.34938-1.39752-.5823-2.1545-.5823-2.62034 0-4.77485 2.15451-4.89131 4.83308-.11646 2.85326.69876 4.36724 1.80513 6.46351l.29115.5823c.29114.58229.64052 1.16459.9899 1.74689 1.04814 1.86335 2.09628 3.61025 1.57221 4.60016-.23292.52406-.81522.58229-1.97982.69875-.34938 0-.69875.0582-.9899.11646-2.44566.34938-4.36724 2.79503-4.36724 5.59007 0 2.32919.23292 5.64829 2.1545 11.12189-14.44099-15.19798-23.059-35.69488-23.059-57.76398 0-26.66925 12.92702-52.05745 34.53028-67.7795l1.74689-1.28105-28.59084-33.65684-1.33928.52407c-6.11413 2.27096-12.57764 3.43556-19.15761 3.43556-20.08929 0-38.60637-10.9472-48.27252-28.59084l-1.80512-3.26087-1.80513 3.26087c-9.84083 17.58541-28.35791 28.53261-48.4472 28.53261-6.57997 0-13.04348-1.1646-19.15761-3.43556l-1.33928-.52407-28.59084 33.65684 1.74689 1.28105c21.60326 15.78028 34.53028 41.11025 34.53028 67.77951 0 22.06909-8.61801 42.56599-23.05901 57.76397 1.86336-5.4736 2.15451-8.73447 2.15451-11.12189 0-2.79504-1.92159-5.24069-4.36724-5.59007-.29115-.0582-.64053-.0582-.98991-.11646-1.16459-.0582-1.74689-.17469-1.97981-.69875-.52407-.98991.52407-2.79503 1.57221-4.60016.34938-.5823.64052-1.1646.9899-1.74689l.29115-.5823c1.10637-2.09627 1.92159-3.61025 1.80513-6.46351-.11646-2.7368-2.27097-4.83308-4.89131-4.83308-.81522 0-1.5722.23292-2.21273.5823-.34938-.0582-1.10637-.29115-1.45575-.81521-.23292-.29115-.34938-.69876-.29115-1.22283.17469-1.51398 1.1646-1.86335 2.9115-2.38742.87344-.29115 1.80512-.5823 2.56211-1.10637 1.45574-1.04814 2.27096-2.62034 2.27096-4.25078 0-1.63043-.87345-3.14441-2.56211-4.42546-2.21273-1.63044-1.51398-3.3191-.11646-6.23059l.17469-.34938c1.33928-2.79503 1.63043-3.43556 1.63043-5.88121 0-1.57221-.75698-2.96972-1.86335-3.9014.17469-.0582.34938-.11646.52407-.17469.81521-.34938 1.63043-1.04814 2.09627-1.92158.23292-.46584.34938-.93168.40761-1.45575 0-.0582 0-.11646 0-.17469v-.0582-.11646-.0582-.17469-.23292c-.0582-.29114-.11646-.52406-.23292-.75698-.40761-.93168-1.04814-1.51398-1.39752-1.97982-.17469-.23292-.29114-.46584-.29114-.58229 0-.11646 0-.17469 0-.23292.0582-.17469.58229-.5823 1.10636-.81522.52407-.23292 1.28106-.46584 2.03805-.81522.69875-.34938 1.45574-.81522 2.09627-1.45574.64053-.69876 1.10636-1.68867 1.10636-2.67858v-.17469-.17468c0-.0582 0-.17469 0-.34938 0-.29115-.0582-.46584-.11645-.69876-.11646-.46584-.29115-.87345-.52407-1.28106-.46584-.75698-1.1646-1.39751-1.80513-1.86335-.52407-.40761-1.04813-.81522-1.33928-1.22283-.17469-.17469-.23292-.34938-.23292-.46584 0-.11646 0-.23291.0582-.46583.11646-.40761.52407-.98991.93167-1.57221.40761-.5823.87345-1.1646 1.28106-1.86335.40761-.69876.75699-1.45575.93168-2.38743.17469-.87344.11646-1.68866-.0582-2.62034-.23292-.87344-.64053-1.74689-1.28106-2.38742-.64053-.69876-1.5722-1.1646-2.50388-1.28106-.23292-.0582-.46584-.0582-.75699-.0582-.11646 0-.17469 0-.29115 0-.11646 0-.23292 0-.34938.0582-.46583.0582-.93167.23292-1.33928.40761-.40761.23292-.81522.46584-1.1646.87345-.17469.17469-.34938.34938-.46584.5823l-.29115.46584c-.87344-.40761-1.33928-1.04814-1.16459-1.7469.11646-.46584.64053-.75698 1.74689-1.33928.46584-.23292 1.04814-.52407 1.63044-.87345 1.22282-.75699 1.97981-1.97981 1.97981-3.3191 0-2.09627-1.68866-3.78494-3.84317-3.84317-.64052 0-1.16459-.11646-1.28105-.34938-.29115-.4076.11646-1.68866.29115-2.38742.17469-.46584.29115-.93168.46584-1.28105.4076-1.10637.75698-2.09628.64052-3.55202-.17469-2.67857-2.1545-4.65839-4.71661-4.65839-1.86336 0-3.55202 1.10637-4.30901 2.85326-.69876 1.51398-1.45574 3.55202-1.80512 4.83308-.23292.69876-.52407 1.04813-.75699 1.04813-.29115.0582-.81522-.34937-1.39752-1.22282-.58229-.87345-1.5722-1.39752-2.67857-1.39752-1.68866 0-3.08618 1.33929-3.26087 3.14441-.23292 2.32919.11646 3.72671.87345 6.40528.64053 2.27096.46584 2.38742-.0582 2.91149-.23292.23292-.52407.40761-.81522.64053-.0582.0582-.11646.0582-.17469.11646.0582-.87345.11646-1.28106.11646-1.74689.0582-.40761.0582-.81522.11646-1.63044.0582-1.04814.0582-2.50388-.81521-3.49379-.34938-.40761-1.04814-.87345-2.15451-.87345-.93167 0-1.5722.52407-1.97981.87345-.29115.23292-.40761.34938-.52407.34938-.34938 0-.52407-.0582-.5823-.17469-.0582-.0582-.29115-.52407.17469-2.32919.23292-.81522 0-1.68867-.52407-2.38742-.69875-.87345-1.92158-1.45575-3.08618-1.45575-1.04813 0-1.86335.5823-2.44565.98991l-.11646.0582c-.17469.11646-.34938.17469-.40761.23292-.0582-.0582-.11646-.17469-.23292-.40761-1.16459-3.37733-3.26087-3.78494-4.13431-3.78494-2.15451 0-3.95963 1.74689-4.01786 3.95963-.0582 2.03804.69876 3.55202 1.39752 4.83307.34937.69876.69875 1.33929.69875 1.80513 0 .0582 0 .11646-.0582.11646-.11646.17469-.52406.34938-1.10636.34938-2.03805.11645-3.61025 1.68866-3.61025 3.61024 0 1.04814.5823 1.97982 1.1646 2.85326.58229.87345 1.39751 1.63044 3.31909 3.26087.93168.81522 1.10637 1.39752.87345 1.68867-.17469.23292-.87345.34938-1.97981.29115-1.10637-.0582-2.21273.34938-3.02795 1.16459-.87345.81522-1.33929 1.97982-1.33929 3.14441 0 1.33929.69876 2.3292 1.1646 2.96972 1.16459 1.45575 2.7368 2.79504 5.41537 4.71662 1.51398 1.04814 2.09627 1.80512 2.27096 2.50388-.11646 0-.23292 0-.40761 0-1.51397 0-2.91149.81522-3.61024 2.1545-.0582.17469-.17469.29115-.23292.46584-.5823 1.1646-.75699 1.33929-1.04814 1.28106-.52407-.11646-.81522-1.22283-1.1646-2.32919-.29114-1.04814-.69875-2.21274-1.33928-3.3191-.87345-1.45575-2.38742-2.3292-4.01786-2.3292-1.28105 0-2.50388.52407-3.43556 1.45575-.81521.87345-1.28105 2.03804-1.16459 3.20264.11646 1.97981 1.04813 3.72671 2.1545 5.70652.40761.69876 1.22283 2.09627 1.04814 2.44565-.23292.17469-.34938.17469-1.22283-.29115-.64053-.34937-1.51398-.75698-2.50388-.75698 0 0 0 0 0 0-2.27096 0-4.13432 1.86335-4.13432 4.13431 0 1.22283.5823 2.15451 1.10637 2.79503.9899 1.28106 1.92158 1.92159 2.91149 2.67858.34938.23292.69876.52406 1.10636.81521 1.39752 1.10637 1.97982 1.97982 1.80513 2.56212-.11646.4076-.17469.52406-1.68867.29114-.4076-.0582-.75698-.11646-1.16459-.11646-1.04814-.0582-2.03805.29115-2.7368.93168-.81522.75699-1.22283 1.86336-1.22283 3.20264 0 1.28106 1.04814 2.96972 1.63044 3.9014.93167 1.33928 3.55201 3.9014 6.52173 4.83307.81522.23292 1.28106.75699 1.33929 1.39752.0582.23292 0 .46584-.0582.64053-.34938-.40761-.69876-.75699-1.10637-1.10637-.87344-.75699-1.86335-1.1646-2.85326-1.1646-2.1545 0-3.84316 1.63044-4.13431 4.01786-.23292 2.1545.40761 4.01786 2.03804 5.93944.34938.40761.69876.81522 1.04814 1.1646.87344.93168 1.74689 1.86335 1.74689 2.44565 0 .5823 0 .75699-.93168.81522-2.03804.11646-3.55201 1.68866-3.55201 3.61025 0 1.22282.64052 2.09627 1.28105 2.7368.64053.69876 1.45575 1.22282 2.32919 1.80512 1.28106.81522 2.56212 1.68867 3.55202 3.08618-.93167 1.10637-1.45574 2.56211-1.45574 4.13432 0 1.74689.69875 3.37733 1.92158 4.65838 1.97981 1.97982 3.78494 2.62035 5.35714 3.14441.29115.11646.5823.17469.81522.29115.87345.34938 1.39752.87345 1.33929 1.39752-.11646.5823-1.04814 1.28105-2.85326 1.39751-2.3292.17469-3.84317 1.80513-3.84317 4.25078 0 1.57221.81522 2.91149 2.50388 4.13432 2.67857 1.97981 6.98758 1.92158 9.31677 1.68866 1.1646-.11646 1.68867.23292 1.74689.46584.0582.17469-.17468.64053-.81521.93168-1.68867.75698-2.7368 2.38742-2.7368 4.13431 0 1.28106.58229 2.50389 1.86335 3.61025 1.57221 1.45575 5.41537 3.72671 10.19022 4.89131-3.37733 1.39751-6.92935 2.56211-10.5396 3.49379l-2.85326.75698 26.78571 38.48991 1.51398-.5823c1.51398-.5823 2.96972-1.22282 4.42547-1.86335.64052 3.02795 3.61024 4.19254 5.12422 4.71661.23292.11646.46584.17469.64053.23292.46584.23292.81521.64053.87344 1.10637.0582.29115-.0582.52407-.29114.69876-.64053.64052-1.51398 2.1545-1.22283 3.84316.29115 1.45575 1.39751 2.62035 3.26087 3.55202-.69876.93168-1.10637 2.03805-1.10637 3.26087 0 2.15451 1.33929 3.95963 3.55202 4.94954 2.67857 1.16459 5.06599.58229 7.39519 0 1.10636-.29115 2.21273-.52407 3.3191-.64053.58229-.0582 1.28105.0582 1.63043.64053.23292.46583.11646 1.10636-.11646 1.39751-.87345.98991-1.33928 2.15451-1.33928 3.37733 0 1.7469 1.04813 3.37733 2.79503 4.36724 1.39751.75698 2.85326 1.16459 4.60015 1.16459 1.63044 0 3.49379-.34938 5.82298-.9899 2.91149-.81522 5.00777-1.92159 6.52174-2.67857.75699-.40761 1.39752-.69876 1.7469-.81522 4.19254.93167 4.83307 1.74689 4.8913 2.1545.0582.5823-.23292.87345-.93168 1.51398l-.0582.0582c-.75699.64052-1.1646 1.63043-1.1646 2.7368 0 1.10636.52407 2.1545 1.51397 3.02795 2.03805 1.74689 4.89131 3.49379 12.17003 4.07608 1.7469.17469 3.55202.23292 5.59007.23292 1.28105 0 2.44565 0 3.61025-.0582 1.04813 0 2.09627-.0582 3.08618-.0582 1.86335 0 3.26087.0582 4.48369.23292 3.78494.52407 7.51165 1.68867 11.76242 3.3191-2.03804.75699-4.25077 1.51398-6.69642 2.27097-11.82066 3.78493-22.82609 5.76475-32.66693 5.93944-.29115 0-.46584 0-.64053 0-.75699 0-1.5722.58229-1.51397 1.80512.0582 2.38742 3.26087 6.81289 8.44332 6.81289.75699 0 1.51397-.11646 2.21273-.23292.46584-.0582 11.41305-2.09627 31.56056-10.71429 1.45575-.64052 2.79503-1.22282 4.13432-1.80512.87345-.34938 1.74689-.75699 2.56211-1.10637.81522.34938 1.68866.69876 2.56211 1.10637 1.33929.5823 2.67857 1.1646 4.13432 1.80512 20.14751 8.55979 31.09472 10.59783 31.50233 10.65606.75699.17469 1.51397.29115 2.27096.29115 5.18245 0 8.38509-4.42547 8.44332-6.81289 0-1.22283-.75698-1.80512-1.51397-1.80512-.17469 0-.34938 0-.64053 0-9.84084-.17469-20.84627-2.15451-32.66693-5.93944-2.44565-.75699-4.65838-1.51398-6.69642-2.27097 4.25077-1.63043 7.97748-2.79503 11.76242-3.3191 1.28105-.17469 2.62034-.23292 4.48369-.23292.98991 0 2.03805 0 3.08618.0582 1.1646 0 2.38743.0582 3.61025.0582 2.09628 0 3.84317-.0582 5.59007-.23292 7.27872-.64052 10.13198-2.32919 12.17003-4.07608.9899-.87345 1.51397-1.92159 1.51397-3.02795 0-1.10637-.40761-2.09628-1.1646-2.7368l-.0582-.0582c-.69876-.64053-.98991-.93168-.93168-1.51398.0582-.40761.75699-1.22283 4.8913-2.1545.40761.11646 1.04814.40761 1.7469.81522 1.51397.81521 3.55202 1.86335 6.52174 2.67857 2.32919.64052 4.25077.9899 5.82298.9899 1.80512 0 3.26087-.40761 4.60015-1.16459 1.80513-1.04814 2.79503-2.62034 2.79503-4.36724 0-1.1646-.46583-2.32919-1.33928-3.37733-.23292-.29115-.34938-.87345-.11646-1.39751.29115-.5823 1.04814-.69876 1.63043-.64053 1.10637.0582 2.27097.34938 3.3191.64053 2.3292.58229 4.71662 1.16459 7.39519 0 2.21273-.98991 3.55202-2.85326 3.55202-4.94954 0-1.16459-.40761-2.32919-1.10637-3.26087 1.86336-.87344 2.91149-2.09627 3.26087-3.55202.34938-1.68866-.52407-3.20264-1.22283-3.84316-.23291-.23292-.29114-.46584-.29114-.69876.0582-.40761.46583-.87345.87344-1.10637.17469-.0582.40761-.17469.64053-.23292 1.51398-.5823 4.4837-1.74689 5.12422-4.71661 1.45575.64053 2.96972 1.28105 4.42547 1.86335l1.51398.5823 26.84394-38.31522-2.85326-.75698c-3.61025-.93168-7.16227-2.09628-10.5396-3.49379 4.77485-1.1646 8.55978-3.43556 10.19022-4.89131 1.22283-1.16459 1.86335-2.32919 1.86335-3.61025 0-1.74689-1.04813-3.37733-2.7368-4.13431-.64053-.29115-.87344-.75699-.81522-.93168.0582-.23292.5823-.52407 1.7469-.46584 2.32919.17469 6.6382.23292 9.31677-1.68866 1.68866-1.22283 2.50388-2.56212 2.50388-4.13432 0-2.50388-1.45574-4.13432-3.84317-4.25078-1.86335-.11646-2.79503-.81521-2.85326-1.39751-.0582-.52407.46584-1.04814 1.33929-1.39752.29115-.11646.5823-.17469.81522-.29115 1.5722-.52406 3.37733-1.16459 5.35714-3.14441 1.22283-1.22282 1.92158-2.85326 1.92158-4.65838 0-1.57221-.52407-2.96972-1.45574-4.13432.9899-1.45574 2.27096-2.27096 3.55202-3.08618.87344-.5823 1.68866-1.10637 2.32919-1.80512.64053-.69876 1.28105-1.57221 1.28105-2.7368 0-1.97982-1.51397-3.49379-3.55201-3.61025-.93168-.0582-.93168-.23292-.93168-.81522 0-.5823.87345-1.51398 1.74689-2.44565.34938-.34938.69876-.75699 1.04814-1.1646 1.68866-1.92158 2.32919-3.78494 2.03804-5.93944-.29115-2.32919-1.97981-4.01786-4.13431-4.01786-1.04814 0-2.03805.40761-2.85326 1.1646-.40761.34938-.75699.75699-1.10637 1.10637-.0582-.23292-.11646-.46584-.0582-.64053.34938-.69876.81522-1.22283 1.63043-1.45575zm-139.16925 119.7205c10.65606 0 21.13742-2.44565 30.62888-7.04581-.64053 2.91149-1.10636 7.33696-.29115 13.2764-.40761-.17469-.75699-.5823-1.04813-.87345-1.10637-1.33928-2.56212-2.09627-4.13432-2.09627-2.50388 0-4.42547 1.86335-5.12422 4.94953-.29115 1.28106-1.97982 7.68634-5.70653 10.94721-2.7368 2.38742-6.63819 5.18245-14.32453 8.44332-7.68634-3.3191-11.5295-6.0559-14.32453-8.44332-3.72671-3.26087-5.41538-9.72438-5.70653-10.94721-.75698-3.08618-2.67857-4.94953-5.12422-4.94953-1.5722 0-3.02795.75699-4.13432 2.09627-.29115.34938-.64052.69876-1.04813.87345.87344-5.93944.40761-10.36491-.29115-13.2764 9.49146 4.60016 19.91459 7.04581 30.62888 7.04581z" stroke-width=".58229816"/>
   <path d="m263.60637 56.65761c4.65838 0 8.44332 3.78494 8.44332 8.44332 0 4.65839-3.78494 8.44332-8.44332 8.44332-4.65839 0-8.44333-3.78493-8.44333-8.44332-.0582-4.65838 3.78494-8.44332 8.44333-8.44332zm0 15.60559c3.90139 0 6.81288-3.14441 6.81288-7.16227 0-4.07609-2.91149-7.16227-6.81288-7.16227-3.95963 0-6.87112 3.14441-6.87112 7.16227 0 4.07609 2.91149 7.16227 6.87112 7.16227zm-3.26087-12.1118h3.78493c2.27097 0 3.37733.93167 3.37733 2.79503 0 1.5722-.9899 2.7368-2.56211 2.7368l2.79503 4.36724h-1.68866l-2.7368-4.36724h-1.33929v4.36724h-1.63043zm1.63043 4.25077h1.92159c1.22282 0 2.03804-.23292 2.03804-1.5722 0-1.10637-.98991-1.45575-2.03804-1.45575h-1.92159z" stroke-width=".58229816"/>
   <path d="m90.02329 225.23292l1.22283 2.44565c11.18012 22.70963 33.88975 36.85947 59.16149 36.85947 25.32997 0 47.98137-14.09161 59.16149-36.85947l1.22283-2.44565 1.97981 1.86335c11.12189 10.30668 23.81599 18.34239 37.73292 23.99069l21.66149-30.92003c-37.20885-10.94721-63.00466-45.24457-63.00466-84.31678 0-27.25155 12.81056-53.16381 34.41382-69.75931l-23.87422-28.29969c-6.17236 2.09627-12.63587 3.20264-19.21584 3.20264-20.38044 0-39.30513-10.5396-50.07764-27.65916-10.77252 17.11956-29.69721 27.65916-50.07764 27.65916-6.57997 0-13.04348-1.04814-19.21584-3.20264l-23.93245 28.18323c21.60326 16.5955 34.41382 42.50776 34.41382 69.75932 0 39.0722-25.73758 73.36956-63.00466 84.31677l21.66149 30.92003c13.91692-5.6483 26.61102-13.68401 37.73292-23.99069z" fill="#fff" stroke-width=".58229816"/>
   <path d="m274.6118 126.82453l.98991-.17469z" stroke-width=".58229816"/>
   <path d="m235.24845 114.0722v0c0 0 0 0 0 0z" stroke-width=".58229816"/>
   <path d="" stroke-width=".58229816"/>
   <path d="m205.20186 138.41227c-17.46894 6.11413-36.04425 9.31677-55.0854 9.31677-19.04115 0-37.61646-3.20264-55.0854-9.31677-1.04814 37.96584-25.3882 71.15683-60.7337 83.7927l17.06134 24.34006c12.40295-5.41537 23.81599-12.81056 33.83152-22.12733l5.70652-5.24068 3.43556 6.92935c5.06599 10.24844 12.86879 18.92469 22.53494 25.09705 9.95729 6.28882 21.42857 9.66614 33.30745 9.66614 11.82065 0 23.35015-3.31909 33.30745-9.66614 9.66615-6.17236 17.46895-14.84861 22.53494-25.09705l3.43556-6.92935 5.70652 5.24068c10.07376 9.31677 21.42857 16.71196 33.83152 22.12733l17.06134-24.34006c-35.52019-12.63587-59.80202-45.82686-60.85016-83.7927zm-112.15062 44.02174c-1.45574 0-2.62034-1.1646-2.62034-2.62035 0-1.45574 1.1646-2.62034 2.62034-2.62034 1.45575 0 2.62034 1.1646 2.62034 2.62034 0 1.45575-1.16459 2.62035-2.62034 2.62035zm30.39596 31.38587l-6.28881-1.28106 4.54192-22.12733.11646-.69876-.69876-.11646-10.9472-2.21273-.5823-.11646-.11646.5823-4.54193 22.18556-6.28882-1.28106 9.72438-47.57376 6.28882 1.28106-3.61025 17.64363-.17468.87345.69875.11646 10.94721 2.21273.64053.11646.17469-.81521 3.61024-17.64364 6.28882 1.28106zm14.73215-23.40839c-1.45575 0-2.62034-1.1646-2.62034-2.62034 0-1.45575 1.16459-2.62034 2.62034-2.62034 1.45574 0 2.62034 1.16459 2.62034 2.62034 0 1.39751-1.1646 2.62034-2.62034 2.62034zm14.96506 24.04891h-6.40528v-48.56366h6.40528zm9.66615-24.16537c-1.45575 0-2.62034-1.1646-2.62034-2.62034 0-1.45575 1.16459-2.62034 2.62034-2.62034 1.45574 0 2.62034 1.16459 2.62034 2.62034 0 1.45574-1.1646 2.62034-2.62034 2.62034zm15.54736-20.03106l-.5823.11646.11646.52407 2.21273 10.94721.17469.75699.64053-.11646 9.78261-1.97982 1.28106 6.28882-9.84084 1.97982-.5823.11646.11646.64052 4.42546 22.12733-6.28882 1.28106-9.54968-47.57376 22.06909-4.42547 1.28106 6.28882zm27.65916 12.81056c-1.45574 0-2.62034-1.16459-2.62034-2.62034 0-1.45574 1.1646-2.62034 2.62034-2.62034 1.45575 0 2.62034 1.1646 2.62034 2.62034 0 1.45575-1.16459 2.62034-2.62034 2.62034z" fill="#e30613" stroke-width=".58229816"/>
   <g fill="#0069b4" transform="matrix(.58229814 0 0 .58229814 -95.322205 -14.091615)">
      <path d="m417.7 232.3c-1.2 0-2.1.9-2.1 2v14.8h4.2v-14.8c0-1.1-1-2-2.1-2zm1 15.6h-2.1v-13.5c0-.6.5-1.1 1.1-1.1.6 0 1.1.5 1.1 1.1v13.5z"/>
      <path d="m410.4 232.3c-1.2 0-2.1.9-2.1 2v14.8h4.2v-14.8c.1-1.1-.9-2-2.1-2zm1.1 15.6h-2.1v-13.5c0-.6.5-1.1 1.1-1.1.6 0 1.1.5 1.1 1.1v13.5z"/>
      <path d="m447.1 232.3c-1.2 0-2.1.9-2.1 2v14.8h4.2v-14.8c0-1.1-1-2-2.1-2zm1 15.6h-2.1v-13.5c0-.6.5-1.1 1.1-1.1.6 0 1.1.5 1.1 1.1v13.5z"/>
      <path d="m425.4 232.3c-1.2 0-2.1.9-2.1 2v14.8h4.2v-14.8c0-1.1-.9-2-2.1-2zm1.1 15.6h-2.1v-13.5c0-.6.5-1.1 1.1-1.1.6 0 1.1.5 1.1 1.1v13.5z"/>
      <path d="m403.2 232.3c-1.2 0-2.1.9-2.1 2v14.8h4.2v-14.8c0-1.1-.9-2-2.1-2zm1.1 15.6h-2.1v-13.5c0-.6.5-1.1 1.1-1.1.6 0 1.1.5 1.1 1.1v13.5z"/>
      <path d="m454.3 232.3c-1.2 0-2.1.9-2.1 2v14.8h4.2v-14.8c0-1.1-1-2-2.1-2zm1 15.6h-2.2v-13.5c0-.6.5-1.1 1.1-1.1.6 0 1.1.5 1.1 1.1z"/>
      <path d="m432.6 232.3c-1.2 0-2.1.9-2.1 2v14.8h4.2v-14.8c.1-1.1-.9-2-2.1-2zm1.1 15.6h-2.2v-13.5c0-.6.5-1.1 1.1-1.1.6 0 1.1.5 1.1 1.1z"/>
      <path d="m439.9 232.3c-1.2 0-2.1.9-2.1 2v14.8h4.2v-14.8c0-1.1-1-2-2.1-2zm1 15.6h-2.2v-13.5c0-.6.5-1.1 1.1-1.1.6 0 1.1.5 1.1 1.1z"/>
      <path d="m359.9 234.4l4 .7v-9.8l-4-.7zm1.2-7.4c0-.4.3-.8.8-.8.4 0 .8.3.8.8v5.6c0 .4-.3.8-.8.8-.4 0-.8-.3-.8-.8z"/>
      <path d="m354.3 233.4l4 .7v-9.8l-4-.7zm1.3-7.3c0-.4.3-.8.8-.8.4 0 .8.3.8.8v5.6c0 .4-.3.8-.8.8-.4 0-.8-.3-.8-.8z"/>
      <path d="m437 266.1c0-.1-.3-.2-.6-.2-.3 0-1.2 0-2 0h-11.9-2-11.9c-.8 0-1.7 0-2 0-.3 0-.6.1-.6.2 0 .1 0 .9 0 1.7v6.7c5.1.3 10.2.4 15.4.4 5.2 0 10.4-.2 15.6-.4v-6.7c0-.8 0-1.6 0-1.7z"/>
      <path d="m396 232.3c-1.2 0-2.1.9-2.1 2v14.8h4.2v-14.8c0-1.1-.9-2-2.1-2zm1.1 15.6h-2.1v-13.5c0-.6.5-1.1 1.1-1.1.6 0 1.1.5 1.1 1.1v13.5z"/>
      <path d="m388.8 232.3c-1.2 0-2.1.9-2.1 2v14.8h4.2v-14.8c0-1.1-.9-2-2.1-2zm1.1 15.6h-2.1v-13.5c0-.6.5-1.1 1.1-1.1.6 0 1.1.5 1.1 1.1v13.5z"/>
      <path d="m370.8 236.3l4 .7v-9.8l-4-.7zm1.3-7.5c0-.4.3-.8.8-.8.4 0 .8.3.8.8v5.6c0 .4-.3.8-.8.8-.4 0-.8-.3-.8-.8z"/>
      <path d="m376.3 237.3l4 .7v-9.8l-4-.7zm1.3-7.6c0-.4.3-.8.8-.8.4 0 .8.3.8.8v5.6c0 .4-.3.8-.8.8-.4 0-.8-.3-.8-.8z"/>
      <path d="m365.4 235.4l4 .7v-9.8l-4-.7zm1.2-7.5c0-.4.3-.8.8-.8.4 0 .8.3.8.8v5.6c0 .4-.3.8-.8.8-.4 0-.8-.3-.8-.8z"/>
      <path d="m473.7 236.1l4-.7v-9.8l-4 .7zm1.3-8.2c0-.4.3-.8.8-.8.4 0 .8.3.8.8v5.6c0 .4-.3.8-.8.8-.4 0-.8-.3-.8-.8z"/>
      <path d="m468.3 237l4-.7v-9.8l-4 .7zm1.2-8.2c0-.4.3-.8.8-.8.4 0 .8.3.8.8v5.6c0 .4-.3.8-.8.8-.4 0-.8-.3-.8-.8z"/>
      <path d="m462.8 238l4-.7v-9.8l-4 .7zm1.2-8.3c0-.4.3-.8.8-.8.4 0 .8.3.8.8v5.6c0 .4-.3.8-.8.8-.4 0-.8-.3-.8-.8z"/>
      <path d="m479.2 235.1l4-.7v-9.8l-4 .7zm1.3-8.1c0-.4.3-.8.8-.8.4 0 .8.3.8.8v5.6c0 .4-.3.8-.8.8-.4 0-.8-.3-.8-.8z"/>
      <path d="m484.7 234.1l4-.7v-9.8l-4 .7zm1.3-8c0-.4.3-.8.8-.8.4 0 .8.3.8.8v5.6c0 .4-.3.8-.8.8-.4 0-.8-.3-.8-.8z"/>
      <path d="m572.4 136.8l-34-40.1c-10 3-20.3 4.5-30.9 4.5-34 0-65.7-16-86-42.7-20.3 26.6-52 42.7-86 42.7-10.5 0-20.9-1.5-30.9-4.5l-34 40.1c35.5 29.8 56.4 74.1 56.4 120.7 0 .4 0 .7 0 1.1 8.7 3.1 17.6 5.8 26.7 8v-24.6c0-.8.6-1.3 1.4-1.2l25.4 4.4c.8.1 1.4.9 1.4 1.7v13.9c0 .8-.6 1.3-1.4 1.2l-18.2-3.1c-.8-.1-1.6-.3-1.8-.3-.2 0-.4.1-.4.3 0 .2 0 1 0 1.8v7.3c10 2.2 20.1 3.9 30.4 5.1v-6.9c0-.8 0-1.6 0-1.9 0-.3-.3-.5-.6-.6-.3-.1-1.2-.2-2-.4l-2.2-.4c-.8-.1-1.4-.9-1.4-1.7v-6.2c0-.8.6-1.4 1.4-1.4h72c .8 0 1.4.6 1.4 1.4v6.2c0 .8-.6 1.5-1.4 1.7l-2.2.4c-.8.1-1.7.3-2 .4-.3.1-.6.3-.6.6 0 .3 0 1.1 0 1.9v6.9c10.3-1.1 20.5-2.9 30.4-5.1v-7.3c0-.8 0-1.6 0-1.8 0-.2-.2-.4-.4-.3-.2 0-1.1.2-1.8.3l-18.2 3.1c-.8.1-1.4-.4-1.4-1.2v-13.8c0-.8.6-1.5 1.4-1.7l25.4-4.4c.8-.1 1.4.4 1.4 1.2v24.5c9-2.2 17.9-4.9 26.5-8 0-.4 0-.7 0-1.1-.2-46.6 20.7-90.9 56.2-120.7zm-75.9 69.2l-6-6c0-2.6 0-5.2 0-7.5l6 6c0 2.1 0 4.6 0 7.5zm0-9.7l-6-6c0-3.4 0-5.9 0-6.3 0-.2 0-.3-.1-.4 2.2.2 4.3.9 6.1 2 0 1.7 0 4.8 0 10.7zm-46.8-28.8l39.3-14.6-15.3-29.5-22.6 20.9c-.3.3-.8.3-1.1 0-.3-.3-.3-.8 0-1.1l23.4-21.6c.2-.2.4-.2.6-.2.2 0 .4.2.5.4l16.1 31.2c.1.2.1.4 0 .6-.1.2-.2.4-.4.4l-40.1 14.9c-.1 0-.2 0-.3 0-.3 0-.6-.2-.7-.5.1-.4.3-.8.6-.9zm5-20.3v4.7l-4.2-2.7v-2.4c0-.2.1-.4.2-.6l1-.9zm-1.8-3l1.8-1.7v2.9zm1.8 9.5v4.6l-4.2-2.7v-4.6zm0 6.3v3.8c0 0 0 .1 0 .1l-3.2 1.2c-.1 0-.2 0-.3 0-.2 0-.3 0-.4-.1-.2-.1-.3-.4-.3-.6v-7.1zm6.4-14.9v4.4l-4.9-3.1v-4.4zm-4.2-4.5l2.9-2.7 1.3.8v4.6zm4.2 10.7v4.7l-4.9-3.1v-4.7zm0 6.4v3.9l-.7.3-4.2-2.7v-4.6zm-2.5 4.8l-2.4.9v-2.4zm8.8-25.9v4.5l-4.9-3.1v-2.5l1.3-1.2zm-2.5-3.4l2.5-2.3v3.8zm2.5 9.6v4.6l-4.9-3.1v-4.6zm0 6.4v4.4l-4.9-3.1v-4.5zm0 6.1v4l-.7.3-4.2-2.7v-4.7zm-2.5 4.9l-2.4.9v-2.4zm8.8-25.8v4.5l-4.9-3.1v-4.5zm-4.7-4.9l3.8-3.4c.2-.2.4-.2.6-.2.2 0 .3.1.4.2v6.5zm4.7 11.1v4.5l-4.9-3.1v-4.5zm0 6.3v4.6l-4.9-3.1v-4.6zm0 6.3v3.8l-.6.2-4.3-2.7v-4.4zm-2.3 4.7l-2.5.9v-2.5zm8.7-19.5v4.5l-4.9-3.1v-4.5zm-4.9-4.9v-4.7l3.6 7zm4.9 11.2v4.5l-4.9-3.1v-4.5zm0 6.3v3.7l-.8.3-4-2.6v-4.6zm-2.6 4.6l-2.3.8v-2.3zm7.5-7.7l1.8 3.4c.1.2.1.4 0 .6-.1.2-.2.4-.4.4l-.9.3-4-2.6v-4.5zm-3.5-4v-2.8l2.1 4.1zm2.3 9.4l-2.2.8v-2.3zm-2.3 39.8c0 2 0 4.5 0 7.5l-6-6c0-2.6 0-5 0-6.9l.5-.2c0 0 0 .1.1.1zm-4-6.1l4-1.5c0 1.1 0 2.7 0 5.5zm4 15.7c0 2.2 0 4.7 0 7.5l-6-6c0-2.5 0-5.1 0-7.5zm0 9.7c0 .2 0 .3 0 .5l-5.9 1.1-.1-.1c0-2.1 0-4.7 0-7.5zm-31.6-17.3c-.1 0-.2 0-.3 0-.3 0-.6-.2-.7-.5-.1-.4.1-.8.4-1l35.6-13.2c.4-.1.8.1 1 .4.1.4-.1.8-.4 1zm18.1 11.3c0-2.5 0-5 0-7.5l6 6c0 2.3 0 4.8 0 7.5zm5.8 7.9l-5.8 1.1c0-1.9 0-4.3 0-6.9zm.2-19.1c0 2.1 0 4.6 0 7.5l-6-6c0-2.3 0-4.4 0-6.2l.9-.3zm-3.5-5.6l3.5-1.3c0 1.2 0 2.8 0 4.8zm-4 7.7c0 2.1 0 4.6 0 7.5l-6-6c0-1.9 0-3.8 0-5.6l1.4-.5zm-3.1-5.1l3-1.1c0 1.2 0 2.6 0 4.2zm3.1 14.8c0 2.6 0 5.5 0 8.6l-.8.2c0 0-.1 0-.1 0-.2 0-.4-.1-.6-.3l-4.5-5.5c0-2.4 0-5.6 0-9.1zm-7.5-7.5c0 2.5 0 5.4 0 8.7l-8.3-10.2c-.2-.2-.2-.4-.1-.7.1-.2.2-.4.5-.5l3.8-1.4zm-2.6-4.7l2.6-1c0 1.1 0 2.2 0 3.5zm26.6-9.9l6 6c0 1.9 0 4.4 0 7.5l-6-6c0-3.3 0-6.1 0-7.5zm6 15.7c0 2.2 0 4.7 0 7.5l-6-6c0-2.5 0-5.1 0-7.5zm0 9.6c0 .4 0 .9 0 1.3l-5.3 1-.7-.7c0-2.1 0-4.7 0-7.5zm0-21.4l-4.5-4.5c1.5-.5 3-.8 4.6-.8 0 .1-.1.1-.1.2 0 .1 0 .2 0 5.1zm-3.4-27.9l-34.3 12.7c-.2.1-.3.1-.5.1-.6 0-1.2-.4-1.4-1-.3-.8.1-1.6.9-1.9l34.3-12.7c.8-.3 1.6.1 1.9.9.2.7-.2 1.6-.9 1.9zm-36.1 27.6l2.5-.9v-8.9c0-.4.3-.8.8-.8.4 0 .8.3.8.8v8.3l3.8-1.4v-8.9c0-.4.3-.8.8-.8.4 0 .8.3.8.8v8.3l3.8-1.4v-8.9c0-.4.3-.8.8-.8.4 0 .8.3.8.8v8.3l3.8-1.4v-8.8c0-.4.3-.8.8-.8.4 0 .8.3.8.8v8.3l3.8-1.4v-8.7c0-.4.3-.8.8-.8.4 0 .8.3.8.8v8.3l3.8-1.4v-8.9c0-.4.3-.8.8-.8.5 0 .8.3.8.8v8.3l3.9-1.4v-9.9l-32.5 12.1c-.8.3-1.6-.1-1.9-.9-.3-.8.1-1.6.9-1.9l34.6-12.8c.5-.2 1-.1 1.4.2.4.3.6.7.6 1.2v13.1c0 .6-.4 1.2-1 1.4l-35.1 13c-.2.1-.3.1-.5.1-.6 0-1.2-.4-1.4-1-1.3-.8-.9-1.7-.1-2zm-.1-1.6v-7.2c0-.4.3-.8.8-.8.4 0 .8.3.8.8v7.2c0 .4-.3.8-.8.8-.4 0-.8-.4-.8-.8zm5.2-2v-7.2c0-.4.3-.8.8-.8.5 0 .8.3.8.8v7.2c0 .4-.3.8-.8.8-.5 0-.8-.3-.8-.8zm5.2-1.9v-7.2c0-.4.3-.8.8-.8.4 0 .8.3.8.8v7.2c0 .4-.3.8-.8.8-.4 0-.8-.4-.8-.8zm5.3-1.9v-7.2c0-.4.3-.8.8-.8.4 0 .8.3.8.8v7.2c0 .4-.3.8-.8.8-.5-.1-.8-.4-.8-.8zm5.3-2v-7.2c0-.4.3-.8.8-.8.4 0 .8.3.8.8v7.2c0 .4-.3.8-.8.8-.5 0-.8-.4-.8-.8zm5.2-1.9v-7.2c0-.4.3-.8.8-.8.4 0 .8.3.8.8v7.2c0 .4-.3.8-.8.8-.5-.1-.8-.4-.8-.8zm5.3-2v-7.2c0-.4.3-.8.8-.8.4 0 .8.3.8.8v7.2c0 .4-.3.8-.8.8-.5 0-.8-.4-.8-.8zm-81.5-69.6c0 0 20.8-20.8 21.1-21.1.3-.3.7-.4 1.1-.4.4 0 .8.1 1.1.4.3.3 21.1 21.1 21.1 21.1.6.6.6 1.5 0 2.1-.3.3-.7.4-1.1.4-.4 0-.8-.1-1.1-.4l-20-20-20 20c-.3.3-.7.4-1.1.4-.4 0-.8-.1-1.1-.4-.6-.5-.6-1.5 0-2.1zm22.1-9.6l-13.6 13.6v11.8c0 .8-.7 1.5-1.5 1.5-.8 0-1.5-.7-1.5-1.5v-12.4c0-.4.2-.8.4-1.1l15.1-15c .3-.3.7-.4 1.1-.4.4 0 .8.1 1.1.4l15.1 15c .3.3.4.7.4 1.1v12.4c0 .8-.7 1.5-1.5 1.5-.8 0-1.5-.7-1.5-1.5v-11.8zm-6.8 11.3h-.2c-.8 0-1-.5-.4-1l6.4-6.4c.3-.3.7-.4 1.1-.4.4 0 .8.1 1.1.4l6.4 6.4c.6.6.4 1-.4 1h-.2-5.2v14.1c0 .8-.7 1.5-1.5 1.5 0 0-.1 0-.1 0 0 0-.1 0-.1 0-.8 0-1.5-.7-1.5-1.5v-14.1zm-19.8 18.6v-14.3c0-.7.6-1.3 1.3-1.3h5c .7 0 1.3.6 1.3 1.3v13h8v-13c0-.7.6-1.3 1.3-1.3h5c .7 0 1.3.6 1.3 1.3v13h3.5c0 0 0 0 .1 0 0 0 0 0 .1 0h3.5v-13c0-.7.6-1.3 1.3-1.3h5c .7 0 1.3.6 1.3 1.3v13h8v-13c0-.7.6-1.3 1.3-1.3h5c .7 0 1.3.6 1.3 1.3v14.3 1.4c0 .7-.6 1.3-1.3 1.3h-5-10.6-5-4.8c0 0 0 0-.1 0 0 0 0 0-.1 0h-4.8-5-10.6-5c-.7 0-1.3-.6-1.3-1.3zm1.3 5.1h25.3c0 0 .1 0 .1 0 0 0 0 0 .1 0h25.3c.8 0 1.5.7 1.5 1.5 0 .8-.7 1.5-1.5 1.5h-25.3c0 0-.1 0-.1 0 0 0 0 0-.1 0h-25.3c-.8 0-1.5-.7-1.5-1.5 0-.8.7-1.5 1.5-1.5zm-1.5 10.2c0-2.8 2.3-5 5.1-5 1.4 0 2.7.6 3.6 1.5.9-.9 2.2-1.5 3.6-1.5 1.4 0 2.7.6 3.6 1.5.9-.9 2.2-1.5 3.6-1.5 1.4 0 2.7.6 3.6 1.5.9-.9 2.2-1.5 3.6-1.5 0 0 .2 0 .2 0 1.4 0 2.7.6 3.6 1.5.9-.9 2.2-1.5 3.6-1.5 1.4 0 2.7.6 3.6 1.5.9-.9 2.2-1.5 3.6-1.5 1.4 0 2.7.6 3.6 1.5.9-.9 2.2-1.5 3.6-1.5 2.8 0 5.1 2.2 5.1 5v7.8c0 .8-.7 1.5-1.5 1.5-.8 0-1.5-.7-1.5-1.5v-7.8c0-1.1-.9-2-2.1-2-1.2 0-2.1.9-2.1 2v7.8c0 .8-.7 1.5-1.5 1.5-.8 0-1.5-.7-1.5-1.5v-7.8c0-1.1-.9-2-2.1-2-1.2 0-2.1.9-2.1 2v7.8c0 .8-.7 1.5-1.5 1.5-.8 0-1.5-.7-1.5-1.5v-7.8c0-1.1-.9-2-2.1-2-1.2 0-2.1.9-2.1 2v3.8c0 .8-.7 1.5-1.5 1.5 0 0-.1 0-.1 0 0 0-.1 0-.1 0-.8 0-1.5-.7-1.5-1.5v-3.8c0-1.1-.9-2-2-2-1.1 0-2 .9-2 2v3.8c0 .8-.7 1.5-1.5 1.5 0 0-.1 0-.1 0 0 0-.1 0-.1 0-.8 0-1.5-.7-1.5-1.5v-3.8c0-1.1-.9-2-2.1-2-1.2 0-2.1.9-2.1 2v7.8c0 .8-.7 1.5-1.5 1.5-.8 0-1.5-.7-1.5-1.5v-7.8c0-1.1-.9-2-2.1-2-1.2 0-2.1.9-2.1 2v7.8c0 .8-.7 1.5-1.5 1.5-.8 0-1.5-.7-1.5-1.5v-7.8c0-1.1-.9-2-2.1-2-1.2 0-2.1.9-2.1 2v7.8c0 .8-.7 1.5-1.5 1.5-.8 0-1.5-.7-1.5-1.5zm26.7 6.4c0 0 .2 0 .2 0 .8 0 1.5.7 1.5 1.5v3.6h3.3.2c.8 0 1.5.7 1.5 1.5 0 .8-.7 1.5-1.5 1.5h-.2-3.3v3.6c0 .8-.7 1.5-1.5 1.5 0 0-.2 0-.2 0-.8 0-1.5-.7-1.5-1.5v-3.6h-3.3-.2c-.8 0-1.5-.7-1.5-1.5 0-.8.7-1.5 1.5-1.5h.2 3.3v-3.6c0-.9.7-1.5 1.5-1.5zm-.6-3.8v-2.3c0-.4.3-.8.8-.8.4 0 .8.3.8.8v2.3c0 .4-.3.8-.8.8-.5-.1-.8-.4-.8-.8zm7.3 5.2v-7.5c0-.4.3-.8.8-.8.4 0 .8.3.8.8v7.5c0 .4-.3.8-.8.8-.4 0-.8-.4-.8-.8zm-13.1 0c0 .4-.3.8-.8.8-.4 0-.8-.3-.8-.8v-7.5c0-.4.3-.8.8-.8.4 0 .8.3.8.8zm.8 10.6l2.8 2.8c.5.6.6 1.5.1 2.1l-22 26.6c-.5.6-.9.4-.9-.3v-30.8c0-.8.6-1.4 1.4-1.4h16.2c.8 0 1.8.4 2.4 1zm1 14.9l-14.2 40.7c-.5 1.5-2.2 2.7-3.8 2.7h-3.2c-1.6 0-2.2-1.1-1.5-2.5l22.2-41.1c.9-1.3 1.1-1.3.5.2zm-10.9 40.7l12.7-40.7c.5-1.5.7-1.4.5.1l-4.9 40.5c-.2 1.5-1.6 2.8-3.2 2.8h-3.2c-1.4 0-2.3-1.2-1.9-2.7zm15.3-40.5c.1-1 .2-1.3.3-1.1.1-.3.3.1.3 1.1l3.9 40.4c.2 1.6-1 2.8-2.6 2.8h-.2-2.9-.2c-1.6 0-2.7-1.3-2.6-2.8zm2.7-.1c-.2-1.5 0-1.6.5-.1l12.7 40.7c.5 1.5-.4 2.7-2 2.7h-3.2c-1.6 0-3-1.3-3.2-2.8zm2.3-.1c-.5-1.5-.3-1.6.4-.2l22.2 41.1c.7 1.4.1 2.5-1.5 2.5h-3.2c-1.6 0-3.3-1.2-3.8-2.7zm-1.7-10c-.5-.6-.5-1.5.1-2.1l2.8-2.8c.5-.6 1.6-1 2.4-1h16.2c.8 0 1.4.6 1.4 1.4v30.8c0 .8-.4.9-.9.3zm22.4-8.8h-14.7c-.8 0-1.5-.7-1.5-1.5 0-.8.7-1.5 1.5-1.5h14.7c.8 0 1.5.7 1.5 1.5 0 .8-.7 1.5-1.5 1.5zm-11.6-6.7v-7.5c0-.4.3-.8.8-.8.4 0 .8.3.8.8v7.5c0 .4-.3.8-.8.8-.4 0-.8-.4-.8-.8zm7.2 0v-7.5c0-.4.3-.8.8-.8.4 0 .8.3.8.8v7.5c0 .4-.3.8-.8.8-.4 0-.8-.4-.8-.8zm-34.7-7.5v7.5c0 .4-.3.8-.8.8-.4 0-.8-.3-.8-.8v-7.5c0-.4.3-.8.8-.8.4.1.8.4.8.8zm-7.2 0v7.5c0 .4-.3.8-.8.8-.4 0-.8-.3-.8-.8v-7.5c0-.4.3-.8.8-.8.4.1.8.4.8.8zm-4.4 11.2h14.7c.8 0 1.5.7 1.5 1.5 0 .8-.7 1.5-1.5 1.5h-14.7c-.8 0-1.5-.7-1.5-1.5 0-.9.7-1.5 1.5-1.5zm-4.2 25.4l-32.6-12.1v9.9l3.9 1.4v-8.3c0-.4.3-.8.8-.8.4 0 .8.3.8.8v8.8l3.8 1.4v-8.2c0-.4.3-.8.8-.8.4 0 .8.3.8.8v8.8l3.8 1.4v-8.3c0-.4.3-.8.8-.8.4 0 .8.3.8.8v8.8l3.8 1.4v-8.3c0-.4.3-.8.8-.8.4 0 .8.3.8.8v8.9l3.8 1.4v-8.3c0-.4.3-.8.8-.8.5 0 .8.3.8.8v8.9l3.8 1.4v-8.3c0-.4.3-.8.8-.8.4 0 .8.3.8.8v8.9l2.5.9c.8.3 1.2 1.2.9 1.9-.2.6-.8 1-1.4 1-.2 0-.3 0-.5-.1l-35.1-13c-.6-.2-1-.8-1-1.4v-13.1c0-.5.2-1 .6-1.2.4-.3.9-.3 1.4-.2l34.6 12.8c.8.3 1.2 1.2.9 1.9-1.2.8-2 1.2-2.8.9zm1.7 1.6v7.2c0 .4-.3.8-.8.8-.4 0-.8-.3-.8-.8v-7.2c0-.4.3-.8.8-.8.4.1.8.4.8.8zm-5.2-1.9v7.2c0 .4-.3.8-.8.8-.4 0-.8-.3-.8-.8v-7.2c0-.4.3-.8.8-.8.5 0 .8.3.8.8zm-5.2-2v7.2c0 .4-.3.8-.8.8-.4 0-.8-.3-.8-.8v-7.2c0-.4.3-.8.8-.8.4.1.8.4.8.8zm-5.3-1.9v7.2c0 .4-.3.8-.8.8-.4 0-.8-.3-.8-.8v-7.2c0-.4.3-.8.8-.8.5 0 .8.4.8.8zm-5.3-2v7.2c0 .4-.3.8-.8.8-.4 0-.8-.3-.8-.8v-7.2c0-.4.3-.8.8-.8.5.1.8.4.8.8zm-5.2-1.9v7.2c0 .4-.3.8-.8.8-.4 0-.8-.3-.8-.8v-7.2c0-.4.3-.8.8-.8.4 0 .8.4.8.8zm-5.3-2v7.2c0 .4-.3.8-.8.8-.4 0-.8-.3-.8-.8v-7.2c0-.4.3-.8.8-.8.5.1.8.4.8.8zm26.1 27.4l3.8 1.4c.2.1.4.3.5.5.1.2 0 .5-.1.7l-8.3 10.2c0-3.3 0-6.2 0-8.7zm-4.2 2c0-1.3 0-2.5 0-3.5l2.6 1zm-26.6-15.4c-.4-.1-.6-.6-.4-1 .1-.4.6-.6 1-.4l35.6 13.2c.4.1.6.6.4 1-.1.3-.4.5-.7.5-.1 0-.2 0-.3 0zm19.1 22.9c0-2.9 0-5.4 0-7.5l4.6-4.6 1.4.5c0 1.8 0 3.7 0 5.6zm6-3.9c0 3.4 0 6.7 0 9.1l-4.5 5.5c-.1.2-.4.3-.6.3 0 0-.1 0-.1 0l-.8-.2c0-3.2 0-6.1 0-8.6zm-6-10l3 1.1-3 3c0-1.5 0-2.9 0-4.1zm-7.5 21.4c0-2.8 0-5.3 0-7.5l6-6c0 2.5 0 5.1 0 7.5zm6-3.9c0 2.6 0 5 0 6.9l-5.8-1.1zm-6-5.8c0-3 0-5.4 0-7.5l5.1-5.1.9.3c0 1.9 0 4 0 6.2zm0-14.4l3.5 1.3-3.5 3.5c0-2 0-3.6 0-4.8zm-7.5 22c0-2.8 0-5.3 0-7.5l6-6c0 2.5 0 5 0 7.5zm6-3.9c0 2.8 0 5.5 0 7.5l-.1.1-5.9-1.1c0-.2 0-.3 0-.5zm-6-20.9l4 1.5-4 4c0-2.8 0-4.5 0-5.5zm0 15.1c0-3 0-5.5 0-7.5l5.4-5.4c0 0 0-.1.1-.1l.5.2c0 1.8 0 4.2 0 6.9zm-7.5 9.6l6-6c0 2.8 0 5.5 0 7.5l-.7.7-5.3-1c0-.3 0-.7 0-1.2zm-.1-26.5c0-.1-.1-.1-.1-.2 1.6 0 3.1.3 4.6.8l-4.5 4.5c.1-4.9.1-5 0-5.1zm.1 24.4c0-2.8 0-5.3 0-7.5l6-6c0 2.4 0 5 0 7.5zm0-9.6c0-3.1 0-5.6 0-7.5l6-6c0 1.4 0 4.2 0 7.5zm2.5-39.5c.3-.8 1.2-1.2 1.9-.9l34.3 12.7c.8.3 1.2 1.2.9 1.9-.2.6-.8 1-1.4 1-.2 0-.3 0-.5-.1l-34.3-12.7c-.7-.3-1.1-1.2-.9-1.9zm-4.3-6.1l16.1-31.2c.1-.2.3-.4.5-.4.2 0 .5 0 .6.2l23.4 21.6c.3.3.3.8 0 1.1-.3.3-.8.3-1.1 0l-22.6-20.9-15.2 29.5 39.3 14.6c.4.1.6.6.4 1-.1.3-.4.5-.7.5-.1 0-.2 0-.3 0l-40.1-14.9c-.2-.1-.4-.2-.4-.4 0-.3 0-.5.1-.7zm36.1 5.4v-4.6l4.2-2.7v4.6zm4.2-1v7.1c0 .2-.1.5-.3.6-.1.1-.3.1-.4.1-.1 0-.2 0-.3 0l-3.2-1.2c0 0 0-.1 0-.1v-3.8zm-4.2-5.4v-4.7l3-1.9 1 .9c.2.1.2.3.2.6v2.4zm0-6.5v-2.9l1.8 1.7zm-5.7 16.5l-.7-.3v-3.9l4.9-3.1v4.6zm4.2-.9v2.4l-2.4-.9zm-4.9-5v-4.7l4.9-3.1v4.7zm0-6.5v-4.4l4.9-3.1v4.4zm0-6.2v-4.6l1.3-.8 2.9 2.7zm-5.6 16.3l-.7-.3v-4l4.9-3.1v4.7zm4.2-.9v2.4l-2.4-.9zm-4.9-5.2v-4.4l4.9-3.1v4.4zm0-6.1v-4.6l4.9-3.1v4.6zm0-6.3v-4.5l3.6-2.3 1.3 1.2v2.5zm0-6.3v-3.8l2.5 2.3zm-5.7 22.4l-.6-.2v-3.8l4.9-3.1v4.4zm4.2-.9v2.5l-2.5-.9zm-4.8-4.8v-4.6l4.9-3.1v4.6zm0-6.4v-4.5l4.9-3.1v4.5zm0-6.2v-4.5l4.9-3.1v4.5zm0-6.3v-6.5c.1-.1.2-.2.4-.2.2 0 .5 0 .6.2l3.8 3.4zm-5.5 22.4l-.8-.3v-3.7l4.9-3.1v4.6zm4-.8v2.3l-2.3-.8zm-4.9-5v-4.5l4.9-3.1v4.5zm0-6.3v-4.5l4.9-3.1v4.5zm1.3-7l3.6-7v4.7zm-6.7 16.8l-.9-.3c-.2-.1-.4-.2-.4-.4-.1-.2-.1-.4 0-.6l1.8-3.4 3.5-2.3v4.5zm4-.8v2.3l-2.2-.8zm-2.2-6.7l2.1-4.1v2.8zm-6.7 38.4c-.1.1-.1.3-.1.4 0 .3 0 2.8 0 6.3l-6 6c0-5.9 0-9 0-10.7 1.8-1.1 3.8-1.8 6.1-2zm-6.1 14.8l6-6c0 2.3 0 4.9 0 7.5l-6 6c0-2.8 0-5.3 0-7.5zm-1.5 9.1l-.3.3c-1.4-1.2-2.5-2.6-3.3-4.3l3.6-3.6c0 2.7 0 5.3 0 7.6zm0-9.7l-4.3 4.3c-.5-1.5-.8-3-.8-4.7 0-4.3 2-8.2 5.1-10.7 0 2.6 0 6.8 0 11.1zm1.5 10.3l6-6c0 2.8 0 5.4 0 7.5l-1.4 1.4c-1.7-.3-3.2-1-4.6-1.8 0-.4 0-.7 0-1.1zm4.3 6.4c.1-.8.9-1.4 1.7-1.2l27.5 4.8c.8.1 1.4.9 1.2 1.7-.1.7-.8 1.2-1.5 1.2-.1 0-.2 0-.3 0l-27.5-4.8c-.7-.1-1.2-.8-1.1-1.7zm30.2 10.1c0 0-.1 0-.1 0l-27.5-4.8c-.4-.1-.7-.5-.6-.9.1-.4.5-.7.9-.6l27.5 4.8c.4.1.7.5.6.9-.2.3-.5.6-.8.6zm.7 2.9v0 11.1.3c0 .2-.1.4-.3.6-.1.1-.3.2-.5.2 0 0-.1 0-.1 0l-27.5-4.8c-.4-.1-.6-.4-.6-.7v-11.3c0-.2.1-.4.3-.6.2-.1.4-.2.6-.2l27.5 4.8c.4 0 .6.3.6.6zm.3 14.8c-.1.7-.8 1.2-1.5 1.2-.1 0-.2 0-.3 0l-26.5-4.6c-.8-.1-1.4-.9-1.2-1.7.1-.8.9-1.4 1.7-1.2l26.5 4.6c.9.2 1.4.9 1.3 1.7zm-.8-26.6l32.7-41.1c1-1.2 1.1-1.1.3.2l-24.4 40.8c-.8 1.3-2.7 2.4-4.3 2.4h-3.3c-1.5-.1-2-1.1-1-2.3zm78.1 34.9c0 .8-.7 1.5-1.5 1.5h-7.2-7.2-7.2-7.3-7.2c-.1 0-.2 0-.3 0-.1 0-.2 0-.3 0h-7.2-7.2-7.2-7.2-7.2c-.8 0-1.5-.7-1.5-1.5v-16.3c0-2.8 2.3-5 5.1-5 1.4 0 2.7.6 3.6 1.5.9-.9 2.2-1.5 3.6-1.5 1.4 0 2.7.6 3.6 1.5.9-.9 2.2-1.5 3.6-1.5 1.4 0 2.7.6 3.6 1.5.9-.9 2.2-1.5 3.6-1.5 1.4 0 2.7.6 3.6 1.5.9-.9 2.2-1.5 3.6-1.5 1.6 0 3 .7 3.9 1.8.9-1.1 2.3-1.8 3.9-1.8 1.4 0 2.7.6 3.6 1.5.9-.9 2.2-1.5 3.6-1.5 1.4 0 2.7.6 3.6 1.5.9-.9 2.2-1.5 3.6-1.5 1.4 0 2.7.6 3.6 1.5.9-.9 2.2-1.5 3.6-1.5 1.4 0 2.7.6 3.6 1.5.9-.9 2.2-1.5 3.6-1.5 2.8 0 5.1 2.2 5.1 5v16.3zm-.4-23.5h-36.7-1.5-36.7c-.4 0-.8-.3-.8-.8 0-.4.3-.8.8-.8h36.7 1.5 36.7c.4 0 .8.3.8.8 0 .4-.4.8-.8.8zm0-3.2h-36.7-1.5-36.7c-.8 0-1.5-.7-1.5-1.5 0-.8.7-1.5 1.5-1.5h36.7 1.5 36.7c.8 0 1.5.7 1.5 1.5 0 .8-.6 1.5-1.5 1.5zm-1.5-6c-1.6 0-3.5-1.1-4.3-2.4l-24.4-40.8c-.8-1.3-.7-1.4.3-.2l32.7 41.1c1 1.2.5 2.2-1.1 2.2zm32.1 1.9l-27.5 4.8c0 0-.1 0-.1 0-.4 0-.7-.3-.7-.6-.1-.4.2-.8.6-.9l27.5-4.8c.4-.1.8.2.9.6 0 .4-.3.8-.7.9zm.7 2.9v11.3c0 .4-.3.7-.6.7l-27.5 4.8c0 0-.1 0-.1 0-.2 0-.3-.1-.5-.2-.2-.1-.3-.4-.3-.6v-.3-11-.1c0-.4.3-.7.6-.7l27.5-4.8c.2 0 .4 0 .6.2.2.3.3.5.3.7zm-1 16.2l-26.5 4.6c-.1 0-.2 0-.3 0-.7 0-1.3-.5-1.5-1.2-.1-.8.4-1.6 1.2-1.7l26.5-4.6c.8-.1 1.6.4 1.7 1.2.2.8-.3 1.6-1.1 1.7zm1.6-22.6l-27.5 4.8c-.1 0-.2 0-.3 0-.7 0-1.3-.5-1.5-1.2-.1-.8.4-1.6 1.2-1.7l27.5-4.8c.8-.1 1.6.4 1.7 1.2.3.8-.3 1.5-1.1 1.7zm1-5.3l-1.4-1.4c0-2.2 0-4.8 0-7.5l6 6c0 .4 0 .7 0 1.1-1.4.8-2.9 1.5-4.6 1.8zm6.5-3.2l-.3-.3c0-2.2 0-4.9 0-7.5l3.6 3.6c-.9 1.6-2 3-3.3 4.2zm3.9-5.7l-4.3-4.3c0-4.3 0-8.5 0-11.1 3.1 2.5 5.1 6.4 5.1 10.7 0 1.6-.3 3.2-.8 4.7z"/>
   </g>
   <g fill="#fff" transform="matrix(.58229814 0 0 .58229814 -95.322205 -14.091615)">
      <path d="m347.8 557.7c-2.8-1.7-6.1-2.3-6.8-2.3-.1 0-.2 0-.2 0 .2.7.6 2 1.8 3.4 1.3 1.6 4.3 4.4 9.1 4.4.4 0 .9 0 1.4-.1 0-.1 0-.1 0-.2-.2-.4-1.6-3-5.3-5.2z"/>
      <path d="m510.8 504.6c6.8-1.5 11.7-2.9 15.2-5.5.6-.5 1.6-1.4 1.6-3 0-1.9-1.5-3.4-3.6-3.5-.4 0-.9 0-1.3 0-.3 0-.5 0-.8 0-1.4 0-5.5 0-5.8-4.1-.1-2.5 2.2-4.5 4.4-6.4.9-.7 1.8-1.5 2.4-2.2.8-.9 1.2-2.1 1.2-3.5 0-3-2.5-5.5-5.5-5.5-1.3 0-2.6.5-3.9 1.6-4.5 3.8-6.2 5.3-7.8 6.8-1.4 1.3-2.9 2-4.4 2-1.1 0-3.9-.5-5.3-4.7-.3-1-1.1-2.2-4-2.2-1.8 0-3.4 1-5 3-2.4 3.2-3.3 5.8-4.5 9.4-.4 1.3-.9 2.8-1.6 4.4-2.1 5.5-5 8.5-8.2 8.5-1.9 0-3.7-1-5.3-3-.7-.9-2.2-2.3-4.4-2.3-3.5 0-4.9 3.6-5.4 5.8-.6 2.3-3.7 14.4-10.9 20.7-5.7 5-12.9 9.4-22.4 13.7 1.1.4 2.2.9 3.3 1.3 9-3.6 16.7-6.2 24.6-7.3 2.3-.3 4.9-.5 8.2-.5 1.7 0 3.5 0 5.4.1 2 0 4 .1 6.2.1 3.5 0 6.4-.1 9.3-.4 11.5-1 15.9-3.6 18.9-6.2.9-.8 1.4-1.7 1.4-2.6 0-.9-.3-1.6-.8-2.1l-.1-.1c-1.2-1.1-3-2.7-2.8-5.5.5-3.6 5-5.3 11.7-6.8zm-13.4-7.2c-.9.8-1.9 1.6-2.9 2.4-2.4 2-4.9 3.8-7.5 5.7-2.6 1.8-5.2 3.5-7.8 5.1-.7.4-1.4.8-2.2 1.3 1 .6 2.1 1.2 3.2 1.7 1.6.8 3.3 1.5 5 2 3.4 1.1 7.1 1.8 10.7 1.9-3.7.3-7.4-.1-11-.9-1.8-.4-3.6-1-5.3-1.6-1.6-.6-3.1-1.2-4.6-2-1.4.8-2.7 1.5-4.1 2.2-5.6 2.8-11.4 5.2-17.4 6.9 5.5-2.8 11-5.8 16.2-8.9 2.6-1.6 5.3-3.2 7.8-4.9 2.6-1.7 5.1-3.4 7.6-5.2.5-.3 1-.7 1.5-1.1.5-3 1.1-5.9 1.8-8.9.9-3.5 1.8-6.9 3.4-10.2-1.2 3.4-1.9 6.9-2.4 10.4-.3 2.4-.6 4.9-.8 7.3 1.3-1 2.7-2 4-3 2.5-1.8 4.9-3.8 7.3-5.7 4.8-3.9 9.5-7.9 14.1-12.1-3.7 5-8 9.6-12.6 13.8-.7.7-1.5 1.3-2.2 2 2.6.3 5.2.5 7.8.7 3.3.2 6.6.2 10 .1-3.3.4-6.6.7-10 .9-3 .1-6.3.2-9.6.1z"/>
      <path d="m409.5 541.1c-3.6 1.3-7.4 2.6-11.5 3.9-19.1 6.1-37.1 9.6-53.4 10.3.1 0 .2 0 .3.1 1.6.4 3.1.9 4.5 1.7 1.4.8 2.7 1.8 3.9 3 .6.6 1.1 1.3 1.5 2.3.1.1.1.3.1.5 2.5-.5 21.2-4.5 53.3-18.1 1.3-.6 2.6-1.1 3.9-1.7-.1-1.1-1.3-1.7-2.6-2z"/>
      <path d="m633.4 247.9c.4-.3.5-1.4.4-2.6-.9 1-1.8 2-2.7 3.2.7 0 1.5-.1 2.3-.6z"/>
      <path d="m606.7 194.8c-1.3 0-2.6.5-3.5 1.5-.9.9-1.3 2-1.3 3.2 0 .6 0 1.2.1 1.9.2 4.9.6 11-3.2 12.5-3.6 1.5-5.5-1-6.7-2.6-.4-.5-1.2-.8-2.3-.8-2.1 0-3.3 1.8-3.4 3.6-.2 2.8.2 5.1 3.3 8.9 1.3 1.6 2.5 2.8 3.6 3.8 1.8 1.7 3.4 3.2 3.4 5.4 0 3-2.4 4.2-4.1 5-.4.2-.9.4-1.4.7-1.3.8-2.8 2.1-2.8 4 0 1.2.4 2.2 1.2 3v0c .3.3.6.7.8 1.1.6 1.1 1.2 2.2 1.7 3.3 1 2 1.9 3.9 3 4.7 1.1.8 3.2.5 4.8-1.3 1.4-1.5 3.5-2.4 5.8-2.4 1.4 0 2.7.4 3.9 1 .5-4.1.9-8.2 1.1-12.3-.9-.8-1.7-1.6-2.5-2.5-.9-1-1.8-2-2.6-3.1-1.6-2.2-3-4.5-4-6.9 1.3 2.3 3 4.4 4.8 6.3.9.9 1.9 1.8 2.9 2.7.5.4 1 .8 1.6 1.2 0-.8 0-1.6 0-2.4 0-3.3-.2-6.7-.5-10-.3-3.3-.8-6.6-1.4-10 .8 3.3 1.6 6.5 2.2 9.8.6 3.3 1.1 6.7 1.4 10 .6 6.7.3 11.4-.4 18.7 1 1.4 1.6 3.9 1.6 5.3v.3c.1 2.7.3 6.2 1.6 7.7.3-.6.5-1.2.8-1.8.6-1.2 1.2-2.5 1.9-3.7.4-.6.8-1.2 1.2-1.7.2-.3.4-.5.6-.8.2-.2.5-.6.8-.9 1.1-1.1 2.4-1.8 3.8-2.2 1.8-6.6 5.5-10.8 7.4-12.9.8-.8 1.4-1.5 1.9-2.1.8-1 1.1-1.7 1.1-2.5 0-2-1.8-3.1-3.5-3.3-1.2-.1-2.3.5-3.4 1.1-1.6.9-3.5 2-5.6.8-1.5-.8-2-2-2.2-2.8-.4-2.3 1.2-4.9 5.3-9.2 2.4-2.5 4-6.2 4-9.2 0-2.1-1.7-3.8-3.8-3.8-.9 0-1.7.3-2.2.7-2.3 1.9-4.2 3-6.7 2.7-2.8-.4-4.6-3.1-4.8-7.2 0-.9-.1-1.8-.1-2.7 0-2.1-.1-4.3-.4-5.9-.6-2.5-2.2-3.9-4.8-3.9z"/>
      <path d="m614.9 198.4c.4 1.9.4 4.3.5 6.5 0 .9 0 1.8.1 2.6.1 2.2.8 3.7 1.7 3.8 1 .1 1.8-.1 3.6-1.6 1.1-3.7 2.2-7.3 3.5-11-.5-1-1-1.9-1.4-2.9-.5-1.2-1-2.5-1.4-3.8-.8-2.6-1.3-5.2-1.5-7.9.5 2.6 1.3 5.1 2.4 7.5.5 1.2 1.1 2.4 1.8 3.5.3.5.6.9.9 1.4.4-1.1.8-2.1 1.2-3.2 1-2.8 2.2-5.5 3.3-8.3 1.2-2.7 2.4-5.4 3.8-8-1.1 2.7-2.1 5.5-3 8.3-.9 2.8-1.7 5.6-2.5 8.5-1.2 4.6-2.3 9.3-3.2 14 .3 0 .7-.1 1-.1 4 0 7.3 3.3 7.3 7.3 0 3.9-2 8.5-5 11.6-4.3 4.4-4.4 5.9-4.4 6.2 0 .1.2.2.3.3.4.2 1.1-.1 2.3-.8 1.5-.8 3.3-1.8 5.5-1.6 0 0 0 0 0 0v-1.7c0-2.3 1.1-4.4 2.9-5.7-.2-3.2 1.4-5.8 5.4-8.6 4.4-3 6.9-5.2 8.6-7.3.9-1.1 1.3-2 1.3-2.9 0-1.1-.5-2.1-1.2-2.9-.7-.7-1.7-1.1-2.6-1-3.3.1-5.1-.4-6.2-1.8-.3-.4-2.9-3.8 2-7.8 3.4-2.8 4.3-3.8 5.1-4.9.7-1.1 1.4-2.1 1.4-2.9 0-1.5-1.2-2.7-2.8-2.8-1.8-.1-3.4-.7-4.3-1.8-.7-.8-1-1.8-.9-2.8.1-1.5.9-2.9 1.6-4.4 1-2 2.1-4 2-6.5-.1-2-1.6-3.5-3.4-3.5-.7 0-2.5.4-3.8 4.1-.5 1.6-1.4 2.6-2.6 3-1.2.4-2.4.1-3.8-.9l-.2-.1c-.8-.6-1.5-1.1-2.2-1.1-.9 0-2 .5-2.5 1.2-.4.6-.3 1-.3 1.1.8 3.3.7 5.5-.3 6.9-1.1 1.5-2.9 1.6-3.6 1.7-1.6.1-2.7-.8-3.4-1.4-.6-.5-.8-.7-1.2-.7-.8 0-1.1.3-1.1.4-.3.3-.6 1.2-.5 3.3.1 1.4.2 2.2.2 2.8.1.9.1 1.7.3 3.8.3 3.9-.7 6.8-2.6 8.5.8 1.1 1.5 2.6 1.9 4.4z"/>
      <path d="m578 182.1c.9.5 1.7 1 2.5 1.4 2.2 1.1 4.2 2.1 4.8 4.6.6 2.4-.5 5.3-3.6 6.8.1.1.1.2.2.3l.9 1.7.2.4.1.1v0 0c0 .1.1.2.1.2 0 0 .1.2.2.2.3.3.8.3 1.3 0 .3-.2.5-.4.7-.8l.4-.8c.2-.4.4-.7.7-1 1-1.2 2.4-2.2 4-2.6.8-.2 1.7-.2 2.4-.2.4 0 .7.1 1.1.1-.3-4-.7-8.1-1.4-12.1-.9-5-1.9-10-3.3-14.9 2 4.7 3.6 9.6 5.1 14.5 1.3 4.6 2.4 9.2 3.2 14 .6.4 1.1 1 1.5 1.5.1.1.2.3.3.4.4-.8.9-1.5 1.5-2.2 1.6-1.6 3.7-2.5 6-2.5 1.1 0 2.1.2 3.1.5 1-.4 1.5-1.2 1.9-2.2h-.2c-.1-.6-1.1-1.3-2-2-.5-.4-1.1-.8-1.6-1.3-2.5-2.3-2.2-4.3-1.1-8.5 1.3-4.7 1.7-6.5 1.4-9.8-.1-1.1-.8-2.2-2.1-2.2-.7 0-1.3.3-1.6.8-2.2 3.4-4.4 3.9-5.8 3.7-1.9-.3-3.4-1.8-4.2-4.2-.6-2-1.8-5.4-3-7.9-.8-1.7-2.4-2.8-4.2-2.8-2.5 0-4.4 2-4.6 4.7-.1 1.8.3 3 .9 4.7.3.7.5 1.5.8 2.4.7 2.1 1.5 5 0 7.2-1 1.3-2.6 2-5 2-1.7 0-3.1 1.4-3.1 3.1-.2 1.5 1 2.4 1.5 2.7z"/>
      <path d="m567.5 220c0 .8.3 1.5.9 2.1.6.6 1.4 1.2 2.4 1.7 1 .5 2 .8 3.4 1.4.6.3 1.3.6 1.9 1.1.6.5 1.3 1.1 1.8 2.1.5.9.6 2.3.3 3.2-.3 1-.8 1.7-1.2 2.3-.9 1.1-1.7 1.9-1.9 2.6-.3.5-.2 1.4.1 2 .3.7.9 1.2 1.8 1.6.4.2.9.3 1.3.4l1 .2 1 .2c1.6.4 3.2.8 4.8 1.2 0-.1 0-.2 0-.2 0-2.8 1.6-5.3 4.5-7 .6-.3 1.1-.6 1.6-.8 1.8-.9 2.1-1.2 2.1-1.9 0-.7-.8-1.5-2.3-2.9-1.1-1.1-2.5-2.4-4-4.2-2.5-3.1-3.5-5.6-3.9-7.9h-.1c-1.6-2.8-3.1-5.7-4.4-8.7-.7-1.5-1.3-3-1.9-4.5-.6-1.5-1.1-3.1-1.4-4.7.6 1.5 1.4 2.9 2.2 4.3.8 1.4 1.7 2.7 2.6 4 1 1.5 2.1 2.9 3.2 4.3.9-3 3.5-5 6.6-5 2.1 0 4 .8 5 2.2 1.4 1.9 1.7 1.9 2.6 1.5 1.4-.6 1.1-6.8 1-9.1 0 0 0-.1 0-.1-.2-.4-.3-.7-.5-1.1-.3-.5-.5-1-.8-1.5l-.5-.7c-.1-.2-.3-.4-.5-.6-.7-.7-1.3-1.2-2.2-1.4-.8-.2-2-.3-2.7-.1-.8.2-1.5.7-2.1 1.4-.1.2-.3.4-.4.5l-.5.8c-.4.7-1 1.4-1.8 1.9-.8.5-1.7.9-2.8.9-1 0-2.1-.4-2.8-1-.4-.3-.7-.7-1-1.1-.1-.1-.1-.2-.1-.2l-.1-.3-.2-.4-.9-1.6c-.6-1-1.2-2.1-1.9-3.1l-.5-.8c-.1-.2-.2-.3-.4-.4-.3-.3-.6-.5-1-.7-.4-.2-.8-.3-1.2-.4-.1 0-.2 0-.3 0-.1 0-.3 0-.4 0-.1 0-.4 0-.6 0-.8.1-1.6.5-2.1 1.1-.6.6-1 1.4-1.2 2.3-.2.9-.2 2 0 2.9.3 1.8 1.7 3.7 3.1 5.7.7 1 1.5 2.1 2.1 3.7.3.8.4 1.9.2 2.9-.2 1-.7 1.8-1.2 2.5-1 1.3-2.1 2.1-3.2 2.9-.9.6-1.6 1.3-2 2.1-.2.4-.4.8-.5 1.2-.1.2-.1.4-.1.6 0 0 0 .2 0 .4v.1 0 0z"/>
      <path d="m597.1 273.4c.3-.2.6-.3.9-.5 1.6-.6 3.3-.7 5-.2.8.2 1.5.6 2.2 1 .6.4 1.3.9 1.7 1.2.9.7 1.8 1.1 2.4 1 .6 0 1.3-.5 2-1.3.7-.8 1.2-1.9 1.8-3 .3-.6.6-1.3.9-1.9-3.3-2-3.5-6.9-3.6-10.9v-.3c-.1-2.7-2.1-4.7-4.6-4.7-1.3 0-2.4.5-3.2 1.3-2.7 3-6.8 3.7-9.5 1.7-1.7-1.3-2.8-3.5-4-6-.5-1-1-2.1-1.6-3.1-1-1.7-3.5-2.4-5.6-2.4-2.9 0-5.2 2.4-5.3 5.3 0 3.4.2 4 2.4 8.5l.3.6c2.1 4.4 5.1 10.3-1.2 15-2 1.5-3 3.1-3 4.8 0 2.3 1.5 3.8 2.4 4.4.8.6 2.1 1 3.4 1.4 3 .9 7.2 2.1 7.5 7.2.2 3-1.7 5-3.6 6.2.1.2.3.3.4.5.4.4 1 1.1 1.8.9.7-.2 1.4-1.1 1.6-2.7.4-3.7 1-8.1 4.7-9.7-.2-1-.4-1.9-.5-2.9-.1-1.4-.1-2.8 0-4.2 0-.7.2-1.5.4-2.3.2-.8.6-1.5 1-2.2.1-.2.3-.3.4-.5-2.2-3.5-4.1-7-5.9-10.7-2-4.1-3.7-8.3-5.3-12.6 2.1 4 4.4 7.9 6.8 11.7 2.3 3.3 4.5 6.4 6.9 9.4z"/>
      <path d="m586 349.1c-.9-1.5-1.8-3-2.8-4.4-2-2.9-4.2-5.6-6.7-8 2.8 2.1 5.3 4.7 7.5 7.4 1.1 1.4 2.2 2.8 3.2 4.2.4.6.8 1.2 1.2 1.8.6-1.2 1.4-2.3 2.1-3.4.7-.9 2.5-3.4 5.5-4.1-.4-1.9-1-3.9-1.7-5.8-.9-2.4-1.9-4.7-3-7l-3.4-7c-1.1-2.4-2.2-4.8-3-7.6-.2-.7-.3-1.4-.3-2.3 0-.2 0-.4 0-.6v-.5c0-.4.1-.7.1-1.1.2-1.4.5-2.9 1.3-4.3.4-.7.9-1.5 1.7-2.1.8-.6 1.9-1 2.9-.9.5 0 1 .1 1.4.2l.3.1c.1.1.3.1.4.2.2.1.5.2.7.4.8.6 1.3 1.2 1.7 1.7.4.5.8.9 1.1 1.1.3.2.5.3.8.3.1 0 .4 0 .6 0 .2 0 .4-.1.5-.1.2-.1.2-.1.3-.4.1-.3.1-.7 0-1.3-.1-.5-.2-1.1-.3-1.7-.3-1.2-.7-2.4-1.1-3.6-.4-1.2-.8-2.5-1.2-3.8l-1.1-3.7c-.1-.5-.3-1-.4-1.5-1.3.9-1.7 3-2.1 6.6-.3 2.8-1.9 5-4.1 5.6-1.9.6-4-.2-5.5-2-1.5-1.8-2.9-2.6-4.4-2.6-2.7 0-4.8 2.1-4.9 5-.2 3.9.8 5.8 2.7 9.3l.5 1c .5 1 1.1 1.9 1.6 2.8 2.3 4 4.5 7.8 2.8 11.3-1.4 2.7-4.2 2.9-6.3 3.1-.5 0-1 .1-1.4.1-2.5.4-4.5 3.1-4.5 6.2 0 4.7.7 11.7 6.2 25 2.9 2.7 5.9 5.3 9 7.7.4-7.7 1.6-13.5 3.8-18.3-.7-1.1-1.2-2-1.7-3z"/>
      <path d="m540.9 457.6c-2.7 2.6-5.5 5.1-8.3 7.6-2.3 2-4.6 3.9-6.9 5.9 1.2 1.5 1.9 3.5 1.9 5.6 0 .1 0 .3 0 .4 19.7-1.1 26-7.4 28.1-9.5l.3-.3c1.1-1.1 1.6-2 1.6-2.8 0-1.3-.8-2.4-2.1-3.1-2.1-1-3.4-3.6-2.8-6 .4-1.9 2.2-4 5.8-4 2.3 0 5-.5 7.4-1.2-3.9-2.2-7.7-4.5-11.5-6.9-4.1 4.9-8.7 9.7-13.5 14.3z"/>
      <path d="m289.7 455.2c.6 2.4-.7 5-2.8 6-1.3.6-2.1 1.8-2.1 3.1 0 .9.5 1.7 1.6 2.8l.3.3c2.1 2.1 8.4 8.4 28.1 9.5 0-.1 0-.3 0-.4 0-2.1.7-4 1.9-5.6-2.3-1.9-4.6-3.9-6.9-5.9-2.8-2.5-5.6-5-8.3-7.6-4.8-4.6-9.3-9.3-13.6-14.4-3.8 2.4-7.6 4.7-11.5 6.9 2.5.8 5.1 1.2 7.4 1.2 3.7.2 5.4 2.2 5.9 4.1z"/>
      <path d="m271.3 452.8c.6.4 1.2.8 1.8 1.3.4.3 1 .4 1.6.3.6-.1 1.2-.4 1.6-.7-1.4-.4-2.7-.9-4-1.4-.3.1-.6.3-1 .5z"/>
      <path d="m303 445.3c1.2.3 2.3-.7 4.1-3.4.9-1.5 2.2-2.5 3.7-3.2.1-1.7.3-3.2.4-4.6.3-3.5.6-6 .1-8.1-3.3 2.8-6.7 5.5-10.1 8.1.4 2 .5 4 .6 5.9 0 3.1.1 5 1.2 5.3z"/>
      <path d="m311.4 463.1c.6.4 1.1.8 1.7 1.3-.1-.3-.1-.7-.2-1-.3-1.6-.4-3.2-.5-4.8-.1-3.2.2-6.4 1.1-9.4-.6 3.1-.6 6.2-.1 9.3.2 1.5.5 3 1 4.5.3 1 .7 2.1 1.1 3.1 1.3.9 2.5 1.8 3.8 2.7 1.3-.8 2.8-1.2 4.5-1.2 1 0 2 .2 3 .5.2-1.6-.1-3.6-.8-6.1-.4-1.3-.7-2.3-1-3.2-.9-2.7-1.4-4.5-1.6-7.3 0-.2 0-.4 0-.5-1.7-3.2-3.3-6-5.6-7.9-1.2-1-2.4-1.4-3.9-1.4-1.5 0-2.9.8-3.7 2.2-1.2 1.9-3.8 6-7.9 4.9-3.8-.9-3.9-5-4-8.7 0-1.2-.1-2.4-.2-3.7-3.2 2.3-6.5 4.6-9.8 6.7 4.6 4.7 9.5 9 14.6 13.2 2.7 2.3 5.6 4.6 8.5 6.8z"/>
      <path d="m519.2 450.9c0 .2 0 .4 0 .5-.2 2.8-.8 4.6-1.6 7.3-.3.9-.6 2-1 3.2-.8 2.5-1 4.6-.8 6.1 1-.4 2-.5 3-.5 1.6 0 3.1.4 4.5 1.2 1.2-.8 2.4-1.7 3.6-2.5.4-1 .8-2.2 1.1-3.3.4-1.5.7-3 1-4.5.4-3.1.4-6.2-.1-9.3.9 3 1.3 6.2 1.1 9.4-.1 1.6-.2 3.2-.5 4.8-.1.4-.1.8-.2 1.2.6-.5 1.3-.9 1.9-1.4 3-2.2 5.9-4.5 8.8-6.9 5.1-4.1 10-8.5 14.6-13.2-3.3-2.1-6.6-4.4-9.8-6.7-.1 1.2-.2 2.5-.2 3.7-.1 3.6-.2 7.7-4 8.7-4.1 1-6.7-3-7.9-4.9-.9-1.4-2.2-2.2-3.7-2.2-1.5 0-2.7.4-3.9 1.4-2.6 2-4.2 4.7-5.9 7.9z"/>
      <path d="m531.7 438.7c1.5.6 2.8 1.7 3.7 3.2 1.7 2.8 2.9 3.7 4.1 3.4 1.1-.3 1.2-2.2 1.3-5.4.1-1.9.1-3.9.6-5.9-3.4-2.6-6.8-5.3-10.1-8.1-.5 2.1-.3 4.6.1 8.1 0 1.5.2 3 .3 4.7z"/>
      <path d="m569.3 454.1c.6-.5 1.2-.9 1.8-1.3-.4-.2-.7-.4-1.1-.6-1.3.5-2.6 1-4 1.4.5.3 1.1.6 1.6.7.7.2 1.3.1 1.7-.2z"/>
      <path d="m517.7 446.3c1.4-2.3 2.8-4.3 4.8-6 1.7-1.4 3.5-2.1 5.6-2.2-.1-1.3-.2-2.6-.3-3.7-.4-4.4-.8-7.8.5-10.9-.4-.4-.9-.8-1.3-1.2-4 7.4-8.7 14.2-14.1 20.6 1.6.4 3 1.3 4.1 2.5.3.3.5.6.7.9z"/>
      <path d="m494.5 464c .9 0 1.6-.4 2.3-1.3 1.5-2 2.4-4.2 3.3-6.8-2.7 2.4-5.5 4.6-8.4 6.7.7.8 1.8 1.4 2.8 1.4z"/>
      <path d="m479.1 490c .6-1.6 1.1-2.9 1.5-4.3 1.3-3.8 2.3-6.8 5.1-10.4 2.2-2.9 4.8-4.4 7.8-4.4 4.7 0 6.6 2.5 7.3 4.6.2.7.9 2.3 2 2.3.6 0 1.3-.4 2-1.1 1.6-1.5 3.4-3.1 7.9-6.9-.7-2.3-.5-5.3.6-9 .4-1.3.7-2.4 1-3.3.8-2.6 1.3-4.1 1.5-6.5.1-1.2-.4-2.4-1.2-3.4-1-1.1-2.5-1.7-4-1.7-.1 0-.2 0-.3 0-1.5 1.7-3.1 3.3-4.7 4.9-.1.3-.2.6-.3.9l-.2.5c-1.5 4.9-2.8 8.7-5.3 12.3-1.3 1.8-3.1 2.8-5.1 2.8 0 0 0 0 0 0-2.1 0-4.3-1.1-5.7-2.9-1.1.7-2.1 1.4-3.2 2.1-2.5 1.6-5 3-7.6 4.4-1.3 4-2.8 11.9-1.3 23.4.6-.8 1.4-2.4 2.2-4.3z"/>
      <path d="m326.7 451.2c.2 2.4.6 3.8 1.5 6.5.3.9.6 2 1 3.3 1.1 3.7 1.3 6.7.6 9 4.5 3.8 6.3 5.4 7.9 6.9.7.7 1.4 1.1 2 1.1 1.1 0 1.7-1.6 2-2.3.7-2.1 2.5-4.6 7.3-4.6 2.9 0 5.5 1.5 7.8 4.4 2.8 3.6 3.8 6.6 5.1 10.4.5 1.3.9 2.7 1.5 4.3.7 1.9 1.5 3.4 2.4 4.5 1.5-11.5-.1-19.3-1.3-23.4-2.6-1.4-5.1-2.8-7.6-4.4-1.1-.7-2.2-1.4-3.2-2.1-1.4 1.8-3.6 2.9-5.7 2.9 0 0 0 0 0 0-2 0-3.8-1-5.1-2.8-2.6-3.6-3.8-7.5-5.3-12.3l-.2-.5c-.1-.3-.2-.6-.3-.9-1.6-1.6-3.2-3.2-4.7-4.9-.1 0-.2 0-.3 0-1.5 0-3 .6-4 1.7-1 .8-1.4 2-1.4 3.2z"/>
      <path d="m348 464c1 0 2.1-.6 2.8-1.4-2.9-2.1-5.7-4.4-8.4-6.7.9 2.6 1.9 4.7 3.3 6.8.6.9 1.4 1.3 2.3 1.3z"/>
      <path d="m314.6 434.4c-.1 1.1-.2 2.4-.3 3.7 2.1.1 3.9.8 5.6 2.2 2 1.7 3.5 3.7 4.8 6 .2-.3.5-.6.7-.9 1.1-1.2 2.6-2.1 4.1-2.5-5.4-6.3-10.1-13.2-14.1-20.6-.4.4-.9.8-1.3 1.2 1.3 3.1 1 6.6.5 10.9z"/>
      <path d="m273.8 337.5c0-3.1-2-5.8-4.5-6.2-.5-.1-.9-.1-1.4-.1-2.1-.2-4.9-.4-6.3-3.1-1.7-3.4.5-7.2 2.8-11.3.5-.9 1.1-1.9 1.6-2.8l.5-1c1.8-3.4 2.8-5.3 2.7-9.3-.1-2.8-2.2-5-4.9-5-1.5 0-2.8.8-4.4 2.7-1.4 1.6-3.5 2.3-5.5 1.7-2.2-.7-3.7-2.7-4.1-5.3-.4-3.6-.9-5.7-2.1-6.6-.1.5-.3 1-.4 1.5l-1.1 3.7c-.4 1.3-.8 2.6-1.2 3.8-.4 1.2-.8 2.4-1.1 3.6-.2.6-.3 1.2-.3 1.7-.1.5-.1 1 0 1.3.1.3.1.2.3.4.1.1.3.1.5.1.2 0 .4.1.6 0 .3 0 .5-.1.8-.3.3-.2.7-.6 1.1-1.1.4-.5.9-1.1 1.7-1.7.2-.1.4-.3.7-.4.1-.1.3-.1.4-.2l.3-.1c.4-.1.9-.2 1.4-.2 1 0 2.1.3 2.9.9.8.6 1.3 1.3 1.7 2.1.8 1.5 1.1 2.9 1.3 4.3 0 .4.1.7.1 1.1v.5c0 .2 0 .4 0 .6 0 .8-.2 1.6-.3 2.3-.7 2.8-1.9 5.2-3 7.6l-3.4 7c-1.1 2.3-2.2 4.7-3 7-.7 1.9-1.3 3.8-1.7 5.8 3 .7 4.8 3.2 5.5 4.1.8 1 1.4 2.1 2.1 3.3.4-.5.7-1.1 1.1-1.6 1-1.4 2.1-2.8 3.2-4.2 2.3-2.7 4.7-5.2 7.5-7.4-2.6 2.4-4.8 5.1-6.7 8-1 1.4-1.9 2.9-2.8 4.4-.5.9-1 1.8-1.4 2.7 2.2 4.8 3.4 10.6 3.9 18.5 3.1-2.5 6.1-5 9-7.7 5.3-13.4 6-20.4 5.9-25.1z"/>
      <path d="m209.1 247.9c.8.5 1.5.6 2.3.6-.9-1.2-1.8-2.2-2.7-3.2-.1 1.2-.1 2.3.4 2.6z"/>
      <path d="m225.7 214.8c-2.5.3-4.4-.7-6.7-2.7-.6-.5-1.4-.7-2.2-.7-2.1 0-3.8 1.7-3.8 3.8 0 3 1.6 6.7 4 9.2 4.2 4.3 5.7 6.9 5.3 9.2-.1.8-.6 2-2.2 2.8-2.1 1.1-4.1 0-5.6-.8-1.2-.7-2.3-1.3-3.4-1.1-1.7.2-3.5 1.3-3.5 3.3 0 .7.3 1.5 1.1 2.5.4.6 1.1 1.3 1.9 2.1 1.9 2 6.5 6.8 7.4 12.9 1.4.4 2.7 1.2 3.8 2.2.3.2.6.7.8.9.3.3.4.6.6.8.4.6.8 1.1 1.2 1.7.7 1.2 1.4 2.4 1.9 3.7.3.6.5 1.2.8 1.8 1.3-1.4 1.4-5 1.6-7.7v-.3c.1-1.4.3-3.8 1.9-5.4-.4-6.7-.6-9.8-.3-17.3.1-3.4.4-8.1 1-11.4.6-3.3 1.4-6.6 2.2-9.8-.5 3.3-1 6.6-1.4 10-.3 3.3-.5 6.7-.5 10 0 .7 0 1.5 0 2.2.5-.4.9-.7 1.4-1.1 1-.8 1.9-1.7 2.9-2.7 1.8-1.9 3.4-4 4.8-6.3-1 2.4-2.4 4.8-4 6.9-.8 1.1-1.7 2.1-2.6 3.1-.7.8-1.5 1.6-2.4 2.3.2 4.2.6 8.3 1.1 12.5 1.2-.7 2.5-1 3.9-1 2.3 0 4.4.9 5.8 2.4 1.7 1.8 3.7 2.1 4.8 1.3 1-.8 2-2.7 3-4.7.5-1.1 1.1-2.1 1.7-3.3.2-.4.5-.8.8-1.1v0c .8-.7 1.2-1.8 1.2-3 0-2-1.5-3.3-2.8-4-.5-.3-.9-.5-1.4-.7-1.7-.8-4.1-2-4.1-5 0-2.3 1.6-3.7 3.4-5.4 1.1-1 2.3-2.2 3.6-3.8 3-3.8 3.5-6.1 3.3-8.9-.1-1.8-1.4-3.6-3.4-3.6-1 0-1.9.3-2.3.8-1.2 1.6-3.1 4.1-6.7 2.6-3.7-1.5-3.4-7.6-3.2-12.5 0-.7.1-1.3.1-1.9 0-1.2-.4-2.3-1.3-3.2-.9-.9-2.2-1.5-3.5-1.5-2.6 0-4.2 1.5-4.8 4.3-.3 1.6-.4 3.8-.4 5.9 0 .9 0 1.8-.1 2.7-.1 4-1.9 6.6-4.7 7z"/>
      <path d="m261.5 285.3c1.3-.4 2.6-.8 3.4-1.4.9-.7 2.4-2.2 2.4-4.4 0-1.7-1-3.3-3-4.8-6.3-4.7-3.4-10.7-1.2-15l .3-.6c2.2-4.5 2.4-5.1 2.4-8.5 0-2.9-2.4-5.3-5.3-5.3-2.1 0-4.6.8-5.6 2.4-.6 1-1.1 2.1-1.6 3.1-1.2 2.5-2.3 4.7-4 6-2.7 2-6.8 1.3-9.5-1.7-.8-.8-1.9-1.3-3.2-1.3-2.5 0-4.5 2-4.6 4.7v.3c-.2 4-.4 8.9-3.6 10.9.3.7.6 1.3.9 1.9.5 1.1 1.1 2.2 1.8 3 .7.9 1.4 1.3 2 1.3.6.1 1.5-.3 2.4-1 .4-.3 1-.8 1.7-1.2.7-.4 1.4-.8 2.2-1 1.6-.5 3.4-.4 5 .2.3.1.6.3.9.5 2.4-2.9 4.7-6.1 6.8-9.3 2.4-3.8 4.7-7.7 6.8-11.7-1.6 4.3-3.3 8.4-5.3 12.6-1.7 3.6-3.6 7.2-5.9 10.7.1.2.3.3.4.5.4.7.8 1.4 1 2.2.2.8.4 1.6.4 2.3.1 1.4.1 2.8 0 4.2-.1 1-.3 2-.5 2.9 3.7 1.6 4.3 6 4.7 9.7.1 1.2.7 2.1 1.6 2.4.7.2 1.4 0 1.8-.6.1-.1.2-.2.3-.3-.8-.4-1.6-1-2.2-1.8-1-1.3-1.4-2.9-1.2-4.7.6-5.1 4.6-6.3 7.5-7.2z"/>
      <path d="m265.7 193.8c-.7 1-1.3 2-1.9 3.1l-.9 1.6-.2.4-.1.3c0 .1-.1.1-.1.2-.3.5-.6.8-1 1.1-.8.6-1.8 1-2.8 1-1 0-2-.3-2.8-.9-.8-.5-1.4-1.2-1.8-1.9l-.5-.8c-.1-.2-.2-.4-.4-.5-.6-.7-1.3-1.2-2.1-1.4-.7-.2-1.9-.1-2.7.1-.9.2-1.6.7-2.2 1.4-.2.2-.3.4-.5.6l-.5.7c-.3.5-.6 1-.8 1.5-.2.3-.3.7-.5 1.1 0 0 0 .1 0 .1-.1 2.3-.4 8.5 1 9.1.9.4 1.2.4 2.6-1.5 1.1-1.4 2.9-2.2 5-2.2 3.1 0 5.7 2.1 6.6 5 1.1-1.4 2.2-2.9 3.2-4.3.9-1.3 1.8-2.6 2.6-4 .8-1.4 1.6-2.8 2.2-4.3-.3 1.6-.8 3.1-1.4 4.7-.6 1.5-1.2 3-1.9 4.5-1.3 3-2.8 5.9-4.4 8.7h-.1c-.4 2.3-1.4 4.8-3.9 7.9-1.4 1.8-2.8 3.1-4 4.2-1.5 1.4-2.3 2.2-2.3 2.9 0 .7.3 1 2.1 1.9.5.2 1.1.5 1.6.8 2.9 1.7 4.5 4.2 4.5 7 0 .1 0 .2 0 .2 1.6-.4 3.2-.9 4.8-1.2l1-.2 1-.2c.4-.1.9-.2 1.3-.4.8-.4 1.4-1 1.8-1.6.3-.6.4-1.5.1-2-.3-.7-1-1.5-1.9-2.6-.5-.6-.9-1.3-1.2-2.3-.3-.9-.2-2.3.3-3.2.5-1 1.2-1.6 1.8-2.1.6-.5 1.3-.8 1.9-1.1 1.4-.6 2.4-.9 3.4-1.4 1-.5 1.9-1 2.4-1.7.6-.6.8-1.3.9-2.1v-.2 0 0-.1c0-.2 0-.3 0-.4 0-.1-.1-.4-.1-.6-.1-.4-.3-.8-.5-1.2-.5-.8-1.1-1.4-2-2.1-1.1-.8-2.2-1.6-3.2-2.9-.5-.6-1-1.4-1.2-2.5-.2-1-.1-2.1.2-2.9.6-1.6 1.4-2.7 2.1-3.7 1.4-2 2.8-3.9 3.1-5.7.2-.9.2-2 0-2.9-.2-.9-.6-1.7-1.2-2.3-.6-.6-1.3-1-2.1-1.1-.2 0-.5 0-.6 0-.1 0-.4 0-.4 0-.1 0-.2 0-.3 0-.4.1-.8.2-1.2.4-.4.2-.7.4-1 .7-.1.1-.3.3-.4.4z"/>
      <path d="m232.7 191.8c.9-.3 2-.5 3.1-.5 2.2 0 4.4.9 6 2.5.6.7 1.1 1.4 1.5 2.2.1-.1.2-.3.3-.4.4-.6.9-1.1 1.5-1.5.8-4.8 1.8-9.4 3.2-14 1.4-4.9 3.1-9.8 5.1-14.5-1.4 4.9-2.5 9.9-3.3 14.9-.7 4-1.2 8.1-1.4 12.1.4-.1.7-.1 1.1-.1.7 0 1.6 0 2.4.2 1.6.4 3 1.4 4 2.6.3.3.5.6.7 1l .4.8c.2.4.5.6.7.8.5.3 1 .3 1.3 0 .1-.1.2-.2.2-.2 0 0 .1-.1.1-.2v0 0l .1-.1.2-.4.9-1.7c.1-.1.1-.2.2-.3-3-1.5-4.2-4.4-3.6-6.8.6-2.4 2.6-3.5 4.8-4.6.8-.4 1.6-.8 2.5-1.4.5-.3 1.7-1.2 1.7-2.8 0-1.7-1.4-3.1-3.1-3.1-2.4 0-4-.7-5-2-1.5-2.1-.6-5 0-7.2.3-.9.6-1.7.8-2.4.6-1.8 1-2.9.9-4.7-.1-2.7-2.1-4.7-4.6-4.7-1.8 0-3.5 1.1-4.2 2.8-1.1 2.5-2.3 5.8-3 7.9-.7 2.4-2.3 4-4.2 4.2-1.4.2-3.6-.3-5.8-3.7-.3-.5-.9-.8-1.6-.8-1.3 0-2 1.2-2.1 2.2-.3 3.2.1 5 1.4 9.8 1.1 4.1 1.4 6.2-1.1 8.5-.5.5-1.1.9-1.6 1.3-.9.7-1.9 1.5-2 2h-.2c.1 1.1.7 1.9 1.7 2.3z"/>
      <path d="m202.4 214.8c4 2.8 5.7 5.3 5.4 8.6 1.7 1.3 2.9 3.4 2.9 5.7v1.9c0 0 0 0 0 0 2.3-.3 4.1.7 5.5 1.6 1.3.7 1.9 1 2.3.8.1 0 .3-.2.3-.3.1-.3-.1-1.8-4.4-6.2-3-3.1-5-7.7-5-11.6 0-4 3.3-7.3 7.3-7.3.4 0 .7 0 1 .1-.9-4.7-2-9.4-3.2-14-.8-2.8-1.6-5.7-2.5-8.5-.9-2.8-1.9-5.6-3-8.3 1.4 2.6 2.6 5.3 3.8 8 1.2 2.7 2.3 5.5 3.3 8.3.4 1 .7 2 1.1 3 .3-.4.5-.8.7-1.2.7-1.1 1.3-2.3 1.8-3.5 1.1-2.4 1.9-4.9 2.4-7.5-.2 2.6-.7 5.3-1.5 7.9-.4 1.3-.9 2.5-1.4 3.8-.4.9-.8 1.8-1.3 2.7 1.3 3.7 2.5 7.4 3.5 11.2 1.9 1.5 2.7 1.7 3.6 1.6 1-.1 1.6-1.6 1.7-3.8 0-.8.1-1.7.1-2.6 0-2.3.1-4.7.5-6.5.4-1.8 1.1-3.3 2-4.4-1.9-1.7-2.8-4.6-2.6-8.5.1-2 .2-2.8.3-3.8.1-.7.1-1.4.2-2.8.2-2.1-.2-3-.5-3.3-.1-.1-.3-.4-1.1-.4-.3 0-.6.2-1.2.7-.7.6-1.8 1.5-3.4 1.4-.7 0-2.5-.1-3.6-1.7-1.1-1.4-1.1-3.6-.3-6.9 0-.1.1-.6-.3-1.1-.5-.7-1.6-1.2-2.5-1.2-.7 0-1.4.5-2.2 1.1l-.2.1c-1.3 1-2.6 1.3-3.8.9-1.2-.4-2.1-1.4-2.6-3-1.3-3.7-3.1-4.1-3.8-4.1-1.9 0-3.3 1.5-3.4 3.5-.1 2.5.9 4.6 2 6.5.8 1.5 1.5 2.9 1.6 4.4.1 1.1-.2 2-.9 2.8-.9 1.1-2.5 1.7-4.3 1.8-1.6.1-2.8 1.3-2.8 2.8 0 .8.7 1.9 1.4 2.9.7 1.1 1.7 2.1 5.1 4.9 4.9 4.1 2.3 7.5 2 7.8-1.1 1.4-3 1.9-6.2 1.8-1 0-1.9.3-2.6 1-.8.8-1.2 1.8-1.2 2.9 0 .9.4 1.8 1.3 2.9 1.8 1.9 4.3 4 8.7 7.1z"/>
      <path d="m183.3 276.5c2.7.9 4.4 2.8 4.7 5.2.2 1.7-.3 3.4-1.2 4.6.7 1.1 1.5 2.1 2.2 3.3l.5.8c1 1.6 2.1 2 2.8 1.8.5-.1.8-.4.9-.9.5-3.1 2.1-4.8 3.7-5.5 0-.1 0-.1 0-.2.3-1.6.9-3.1 1.9-4.3 1-1.2 2.4-2.3 4-2.8.3-.1.6-.2.9-.2-.3-1-.6-2-.9-3.1-3.3-1.7-6.6-3.3-10.1-4.7-1.7-.7-3.5-1.4-5.3-2-1.8-.6-3.6-1.1-5.5-1.4 1.9.1 3.8.5 5.6.9 1.9.4 3.7 1 5.5 1.5 3 1 6 2 9 3.2-3.7-12-7.6-24-11.7-35.9 5.9 13.7 11.6 27.4 17 41.3 1.1 0 2.3-.2 2.8-.5.3-.2.3-.3.3-.4 0-.1 0-.5-.2-.9-.1-.3-.5-1-.9-1.5l-1-1.7c-.7-1.2-1.3-2.4-1.9-3.7-.5-1.3-1-2.7-1.2-4.3-.2-1.6.1-3.2.7-4.7 1.2-2.9 3.9-5.2 7-5.8.5-.1 1-.2 1.5-.2-.1-.9-.4-1.8-.9-2.7-.2 0-.8 0-1.2 0-1.3.1-3.3.2-5.3-1.1-2.6-1.8-2-5.7-1.5-9-.7-1-1.5-2.4-1.5-4.1 0-2.3 1.1-4.3 3-5.5v-3.2c0-2-1.6-3.6-3.6-3.6-1.3 0-2.5.7-3.1 1.8-.1.2-.2.5-.4.7-.9 1.8-2.3 4.8-5.7 4.1-2.9-.6-3.8-3.6-4.7-6.4-.5-1.7-1-3.4-1.9-4.9-.8-1.4-2.3-2.3-3.9-2.3-1.3 0-2.5.5-3.3 1.4-.8.8-1.2 1.8-1.1 2.9.1 2.6 1.6 5.3 3.3 8.2 1.7 3 3.9 6.6.8 8.8-2.2 1.6-4.3.5-5.8-.2-.9-.5-1.8-.9-2.8-.9 0 0 0 0 0 0-2 0-3.6 1.6-3.6 3.6 0 .8.4 1.6 1.2 2.7 1.4 1.8 2.6 2.7 4.3 3.9.6.5 1.3 1 2 1.5 2.4 1.9 5.4 4.8 4.2 8.3-1.2 3.7-4.5 3.2-6.7 2.9-.6-.1-1.2-.2-1.7-.2-.9-.1-1.6.2-2.1.7-.7.6-1 1.7-1 2.9 0 .9.9 2.8 2.2 4.7 1.7 2.2 5.6 5.8 9.7 7.1z"/>
      <path d="m192.3 319.3c2.3 0 4.5.8 6.7 2.3-1-2.3-1.6-4.7-1.9-7.3-.1-.5-.1-1.1-.1-1.8-1.2-1.3-2.3-2.7-3.5-4-1.2-1.5-2.4-3-3.6-4.5-2.3-3.1-4.5-6.2-6.2-9.6 2.3 3.1 4.9 5.8 7.5 8.5 1.3 1.3 2.7 2.6 4.1 3.9.8.7 1.6 1.4 2.4 2.1.6-1.2 1.6-2.3 2.9-3 .8-.4 1.6-.7 2.5-.8.4 0 1-.1 1.2 0 .5 0 .8.1 1.2.1 1.5.3 2.9.8 4.1 1.3 1.2.5 2.4.9 2.9.8.2 0 .3-.1.5-.3.1-.1.1-.1.2-.2 0 0 0-.1 0-.1 0-.1 0-.1 0-.2 0-.2-.2-.5-.5-.9-.3-.4-.7-.8-1.1-1.2-.8-.8-1.8-1.6-2.8-2.4-2-1.6-4.2-3.1-6.2-4.9-1-.9-2-1.9-2.9-3-.5-.6-.8-1.1-1.2-1.7-.4-.6-.8-1.2-1.1-2-.1-.1-.1-.3-.2-.5-.3.5-.6 1.1-.7 2-.3 1.9-1.7 3.4-3.6 3.7-2.4.5-4.8-.8-6.5-3.3l-.5-.8c-1.9-2.9-3.6-5.5-5.8-7.5-.8-.7-1.7-1.1-2.6-1.1-2.2 0-3.4 1.9-3.6 3.8-.3 2.7.5 4.9 2.7 7.5.6.7 1.2 1.3 1.7 1.9 2.1 2.3 3.9 4.2 3.9 6.6 0 3-1.6 4.7-4.9 4.9-1.6.1-2.9 1.3-2.9 2.8 0 .8.5 1.5 1.3 2.4.8.9 2 1.6 3.4 2.5 2.1 1.4 4.7 3.1 6.8 5.9 2-1.2 4.1-1.9 6.4-1.9z"/>
      <path d="m278.6 480.6h.8c3.7.2 4.4.1 5.1-1.5.3-.6.4-1.3.5-2.1.2-1.4.6-3.2 2-4.5-1.3-1-2.1-1.9-2.8-2.5l-.3-.3c-1.1-1.1-2.7-2.9-2.7-5.3 0-2.6 1.6-5 4.1-6.2.7-.3 1.1-1.3.9-2.1-.2-1.1-1.4-1.3-2.3-1.3-1.1 0-2.3-.1-3.5-.3-1.1 1.6-3 2.9-5 3.3-1.6.3-3.2 0-4.4-.9-1.2-.9-2.4-1.7-3.4-2.2-2.4 1.2-4.8 2.4-7.3 3.5.3 3.6 3.5 5.1 6.7 6.3.5.2 1 .4 1.3.5 1.8.8 3.2 2.6 3.5 4.5.3 1.6-.3 3.2-1.6 4.4-.4.3-1.3 1.8-1 3.3.3 1.7 2.1 3.1 5.1 4.3 1.4-.7 2.8-1 4.3-.9z"/>
      <path d="m311.3 496.2c0-2.3 1.1-4.3 2.8-5.5-.8-.2-1.5-.4-2.3-.6-3-.7-6.1-1.3-9.2-1.8-3.1-.4-6.2-.7-9.3-.8-3.1 0-6.3.2-9.4.8 3-1 6.2-1.5 9.3-1.7 3.2-.2 6.4-.2 9.5-.1 3.2.2 6.3.5 9.5.9 3.1.4 6.2 1 9.3 1.7 1.2-.1 1.3-.4 1.3-.7 0-.7-2-2.5-3.2-3.5-1-.8-1.9-1.6-2.7-2.5-.5-.6-.9-1.2-1.3-1.9-13-.6-20.8-3.3-25.5-6-1.2.4-1.4 1.2-1.7 3-.2.9-.3 2-.8 3-1.7 3.9-5 3.7-8.5 3.6h-.8c-1.3-.1-2.7.4-3.7 1.4-1.1 1.1-1.7 2.5-1.7 4.1 0 2.2 1.5 4.2 4 5.3 3.5 1.5 6.7.7 10.5-.2 2-.5 4.1-1 6.3-1.1 2.8-.2 5.1.9 6.1 3.1 1 2 .7 4.6-.7 6.2-1 1.1-1.5 2.3-1.5 3.4 0 2.4 1.9 3.8 3.1 4.5 3.7 2.1 7.8 2.1 15.3 0 4.2-1.2 7.3-2.7 9.7-4-4.8-1.2-8.5-2.7-11.5-4.9-1.8-1.4-2.9-3.5-2.9-5.7z"/>
      <path d="m564 484.1h-.8c-3.5.2-6.8.3-8.5-3.6-.4-1-.6-2-.8-3-.3-1.8-.5-2.6-1.7-3-4.7 2.7-12.4 5.4-25.5 6-.3.7-.8 1.3-1.3 1.9-.8.9-1.8 1.7-2.7 2.5-1.2 1-3.3 2.7-3.2 3.5 0 .3.1.6 1.3.7 3.1-.7 6.2-1.2 9.3-1.7 3.2-.4 6.3-.8 9.5-.9 3.2-.2 6.4-.2 9.5.1 3.2.3 6.3.7 9.3 1.7-3.1-.7-6.2-.9-9.4-.8-3.1 0-6.2.3-9.3.8-3.1.4-6.2 1-9.2 1.8-.8.2-1.5.4-2.3.6 1.7 1.3 2.8 3.3 2.8 5.5 0 2.2-1.1 4.4-3.1 5.8-3 2.2-6.7 3.6-11.5 4.9 2.4 1.2 5.5 2.8 9.7 4 7.5 2.1 11.6 2.1 15.3 0 1.1-.7 3.1-2.1 3.1-4.5 0-1.2-.5-2.3-1.5-3.4-1.4-1.6-1.7-4.2-.7-6.2 1-2.1 3.3-3.3 6.1-3.1 2.2.1 4.3.7 6.3 1.1 3.7.9 7 1.7 10.5.2 2.5-1.1 4-3.1 4-5.3 0-1.5-.6-3-1.7-4.1-.8-1.1-2.1-1.6-3.5-1.5z"/>
      <path d="m571.4 456.9c-1.2.9-2.7 1.3-4.4.9-2-.4-3.9-1.7-5-3.3-1.2.2-2.4.3-3.5.3-.9 0-2.1.2-2.3 1.3-.2.8.2 1.8.9 2.1 2.5 1.2 4.1 3.6 4.1 6.2 0 2.5-1.5 4.2-2.7 5.3l-.3.3c-.6.6-1.5 1.5-2.8 2.5 1.4 1.3 1.7 3.2 2 4.5.1.8.3 1.5.5 2.1.7 1.6 1.5 1.7 5.1 1.5h.8c1.5-.1 2.9.3 4.2.9 3-1.1 4.8-2.6 5.1-4.3.3-1.5-.6-2.9-1-3.3-1.3-1.2-1.8-2.7-1.6-4.4.3-1.9 1.7-3.7 3.5-4.5.3-.2.8-.3 1.3-.5 3.3-1.2 6.5-2.8 6.7-6.3-2.5-1.1-4.9-2.3-7.3-3.5-.9.5-2 1.2-3.3 2.2z"/>
      <path d="m665.7 294.2c2.2-2.5 3-4.8 2.7-7.5-.2-1.9-1.4-3.8-3.6-3.8-.9 0-1.8.4-2.6 1.1-2.3 2-3.9 4.5-5.8 7.5l-.5.8c-1.7 2.6-4.1 3.8-6.5 3.3-1.9-.4-3.3-1.9-3.6-3.7-.2-.9-.4-1.5-.7-2-.1.2-.1.3-.2.5-.3.7-.7 1.4-1.1 2-.4.6-.7 1.1-1.2 1.7-.9 1.1-1.9 2.1-2.9 3-2 1.8-4.2 3.3-6.2 4.9-1 .8-2 1.6-2.8 2.4-.4.4-.8.8-1.1 1.2-.3.4-.5.8-.5.9 0 .1 0 .1 0 .2 0 0 0 .1 0 .1.1.2.1.2.2.2.2.3.3.3.5.3.5.1 1.7-.3 2.9-.8 1.2-.5 2.5-1 4.1-1.3.4-.1.7-.1 1.2-.1.3 0 .8 0 1.2 0 .8.1 1.7.3 2.5.8 1.3.7 2.3 1.8 2.9 3 .8-.7 1.6-1.4 2.4-2.1 1.4-1.3 2.8-2.5 4.1-3.9 2.7-2.6 5.3-5.4 7.5-8.5-1.8 3.4-3.9 6.5-6.2 9.6-1.1 1.5-2.3 3-3.6 4.5-1.1 1.4-2.3 2.7-3.5 4 0 .6 0 1.2-.1 1.8-.2 2.5-.9 5-1.9 7.3 2.2-1.5 4.4-2.3 6.7-2.3 2.3 0 4.4.7 6.1 1.8 2.1-2.8 4.7-4.5 6.8-5.9 1.4-.9 2.6-1.7 3.4-2.5.8-.8 1.3-1.6 1.3-2.4 0-1.5-1.2-2.7-2.9-2.8-3.2-.2-4.9-1.8-4.9-4.9 0-2.4 1.8-4.4 3.9-6.6.9-.5 1.5-1.1 2-1.8z"/>
      <path d="m667.6 261.2c-.6 0-1.1.1-1.7.2-2.2.3-5.5.8-6.7-2.9-1.1-3.4 1.9-6.4 4.2-8.3.7-.6 1.4-1.1 2-1.5 1.6-1.2 2.9-2.1 4.3-3.9.8-1.1 1.2-1.9 1.2-2.7 0-2-1.6-3.6-3.6-3.6v0c-.9 0-1.8.4-2.8.9-1.5.8-3.6 1.8-5.8.2-3-2.2-.9-5.8.8-8.8 1.7-2.9 3.1-5.6 3.3-8.2.1-1.1-.3-2.1-1.1-2.9-.9-.9-2.1-1.4-3.3-1.4-1.6 0-3 .9-3.9 2.3-.9 1.5-1.4 3.2-1.9 4.9-.9 2.9-1.8 5.8-4.7 6.4-3.4.7-4.8-2.3-5.7-4.1-.1-.3-.2-.5-.4-.7-.6-1.1-1.8-1.8-3.1-1.8-2 0-3.6 1.6-3.6 3.6v3.2c1.9 1.2 3 3.2 3 5.5 0 1.7-.8 3.1-1.5 4.1.6 3.2 1.2 7.2-1.5 9-2 1.4-4 1.2-5.3 1.1-.4 0-.9-.1-1.2 0-.4.9-.7 1.8-.9 2.7.5 0 1 .1 1.5.2 3.1.6 5.8 2.9 7 5.8.6 1.5.8 3.1.7 4.7-.2 1.6-.6 3-1.2 4.3-.6 1.3-1.2 2.5-1.9 3.7l-1 1.7c-.3.5-.7 1.2-.9 1.5-.2.4-.2.7-.2.9 0 .1.1.2.3.4.6.4 1.7.5 2.8.5 5.4-13.9 11.1-27.7 17-41.3-4.1 11.9-8 23.8-11.7 35.8 2.9-1.2 5.8-2.2 8.8-3.1 1.8-.6 3.6-1.1 5.5-1.5 1.8-.4 3.7-.8 5.6-.9-1.9.3-3.7.8-5.5 1.4-1.8.6-3.5 1.3-5.3 2-3.3 1.4-6.6 3-9.9 4.6-.3 1.1-.7 2.1-1 3.2.3.1.6.1.9.2 1.6.5 3 1.5 4 2.8 1 1.3 1.7 2.7 1.9 4.3 0 .1 0 .1 0 .2 1.6.7 3.2 2.4 3.7 5.5.1.5.4.8.9.9.7.1 1.8-.3 2.8-1.8l.5-.8c.7-1.1 1.4-2.2 2.2-3.3-1-1.2-1.5-2.9-1.2-4.6.3-2.5 2-4.4 4.7-5.2 4.1-1.3 8-4.9 9.4-7 1.3-1.9 2.2-3.8 2.2-4.7 0-1.2-.4-2.3-1-2.9-.1-.6-.8-.8-1.7-.8z"/>
      <path d="m497.5 555.3c.1 0 .2 0 .3-.1-16.3-.7-34.2-4.1-53.4-10.3-24.7-7.9-39.7-15.1-50-24.1-7.3-6.3-10.4-18.3-10.9-20.7-.5-2.2-1.9-5.8-5.4-5.8-2.2 0-3.7 1.4-4.4 2.3-1.6 2-3.4 3-5.3 3-3.2 0-6.1-3-8.2-8.5-.6-1.6-1.1-3.1-1.6-4.4-1.2-3.6-2.1-6.3-4.5-9.4-1.5-2-3.2-3-5-3-2.8 0-3.6 1.2-4 2.2-1.4 4.3-4.2 4.7-5.3 4.7v0c-1.5 0-3-.7-4.4-2-1.6-1.5-3.3-3-7.8-6.8-1.2-1-2.5-1.6-3.9-1.6-3 0-5.5 2.5-5.5 5.5 0 1.4.4 2.6 1.2 3.5.6.7 1.5 1.5 2.4 2.2 2.3 1.9 4.6 3.9 4.4 6.4-.2 4.1-4.4 4.1-5.8 4.1-.3 0-.6 0-.8 0-.5 0-.9 0-1.3 0-2 .1-3.6 1.6-3.6 3.5 0 1.5 1 2.5 1.6 3 3.5 2.6 8.4 4 15.2 5.5 6.7 1.5 11.2 3.2 11.5 6.9.2 2.8-1.6 4.4-2.8 5.5l-.1.1c-.5.5-.8 1.2-.8 2.1 0 .9.5 1.8 1.4 2.6 3 2.6 7.4 5.2 18.9 6.2 2.9.2 5.9.4 9.3.4 2.1 0 4.2 0 6.2-.1 1.9 0 3.6-.1 5.4-.1 3.4 0 5.9.1 8.2.5 11.6 1.6 22.7 6.4 38.2 13.1 2.3 1 4.6 2 7.1 3 32.4 13.8 51.2 17.7 53.3 18.1 0-.2.1-.3.1-.5.4-1 1-1.6 1.5-2.3 1.2-1.2 2.5-2.2 3.9-3 1.6-.7 3.1-1.3 4.7-1.7zm-126.1-40.2c-.9-.4-2.2-1.1-4.2-2.2-1.5.8-3.1 1.5-4.7 2.1-1.7.6-3.5 1.2-5.3 1.6-3.6.8-7.3 1.2-11 .9 3.7-.1 7.3-.8 10.7-1.9 1.7-.6 3.4-1.2 5-2 1.1-.5 2.3-1.2 3.3-1.8-.6-.4-1.3-.8-2.1-1.2-2.7-1.6-5.3-3.4-7.8-5.1-2.5-1.8-5-3.7-7.5-5.7-1-.8-1.9-1.6-2.9-2.4-3.4.1-6.7 0-10-.1-3.3-.2-6.7-.4-10-.9 3.3.1 6.7.1 10-.1 2.7-.1 5.3-.4 8-.7-.7-.6-1.5-1.3-2.2-2-4.5-4.3-8.9-8.8-12.6-13.8 4.6 4.2 9.3 8.2 14.1 12.1 2.4 1.9 4.8 3.8 7.3 5.7 1.3 1 2.5 1.9 3.8 2.9-.2-2.4-.5-4.8-.8-7.2-.5-3.5-1.2-7-2.4-10.4 1.5 3.2 2.5 6.7 3.4 10.2.7 2.9 1.3 5.8 1.7 8.7.6.4 1.1.8 1.7 1.2 2.5 1.8 5 3.5 7.6 5.2 2.6 1.7 5.2 3.3 7.8 4.9 5.3 3.2 10.7 6.1 16.2 8.9-5.8-1.7-11.6-4.1-17.1-6.9z"/>
      <path d="m496.1 557c-3 1.3-4.8 3.1-5.7 4.2-.4.6-1 1.8-1 1.9.5 0 .9.1 1.4.1 4.8 0 7.8-2.8 9.1-4.4 1.2-1.5 1.7-2.7 1.8-3.4-.1 0-.2 0-.2 0-.8 0-2.4.4-5.4 1.6z"/>
      <path d="m240.9 302.9c.4-1.3.8-2.6 1.2-3.8.4-1.2.8-2.4 1.2-3.6l1.1-3.7c.7-2.5 1.4-4.9 1.7-7.3.1-1.2.1-2.4 0-3.6 0-.6-.1-1.1-.3-1.5-.1-.5-.3-.9-.6-1.3-.5-.8-1.2-1.5-2.1-1.8-.8-.3-1.8-.4-2.7-.1-.4.1-.9.3-1.3.6-.5.3-.8.6-1.5 1.1-.6.4-1.3.9-2 1.2-.8.3-1.7.5-2.7.5-1-.1-1.9-.4-2.7-.9-.7-.5-1.3-1.1-1.8-1.7-1-1.2-1.6-2.5-2.2-3.7-.6-1.2-1.1-2.5-1.6-3.7-.5-1.2-1-2.4-1.5-3.5-.5-1.1-1.1-2.2-1.7-3.2-.3-.5-.7-1-1-1.5-.2-.2-.4-.5-.5-.7l-.2-.2-.1-.1c-.1-.1-.2-.2-.2-.3-1.4-1.4-3.6-2-5.6-1.6-2 .4-3.7 1.9-4.5 3.7-.4.9-.5 2-.4 3 .1 1 .4 2.1.9 3.2.5 1.1 1.1 2.2 1.7 3.3l1 1.7c.3.6.7 1 1.1 1.9.3.8.6 1.8.4 2.9-.2 1.2-1.1 2.2-1.9 2.7-.8.5-1.7.7-2.4.9-.8.1-1.5.2-2.3.2-.4 0-.7 0-1.1 0h-.5c-.1 0-.4 0-.4 0-.4 0-.9.1-1.3.2-.9.3-1.7.9-2.3 1.7-.6.8-1.1 1.7-1.2 2.7-.2 1-.1 1.9.3 2.8.2.5.5 1 .8 1.4.3.5.7 1.1 1 1.4.7.9 1.6 1.8 2.5 2.6 1.9 1.6 3.9 3.2 6 4.8 1 .8 2.1 1.6 3.1 2.6.5.5 1 1 1.5 1.7.5.7 1 1.4 1.1 2.6.1.6 0 1.2-.2 1.8-.1.3-.2.5-.4.8-.1.1-.3.4-.4.5-.6.8-1.7 1.5-2.8 1.6-1.1.1-1.9-.1-2.7-.3-.7-.2-1.4-.5-2-.7-2.4-1-4.6-1.6-6-.8-.7.4-1.3 1.1-1.6 2-.3.9-.3 1.8-.2 3.1.2 2.4 1.1 4.6 2 6.9 1.4 3.4 3.4 6.5 5.8 9.5.5.4 1 .8 1.5 1.1 2.3 1.5 2.9.9 4.4-1.2 1.8-2.5 4.4-4 7.2-4 2.9 0 5.7 1.6 7.5 4.5 2.6 4 4.3 7.4 5.2 9.9 1.7 4.8 2.9 5.3 3.2 5.4.3.1.7-.3.9-.5l.2-.2c1.1-1 2.5-2.3 4.3-2.8.4-2.5 1.1-4.8 1.9-7.1.9-2.5 2-4.9 3.2-7.3l3.4-7c1.1-2.3 2.2-4.7 2.7-6.9.1-.6.2-1.1.2-1.6 0-.1 0-.2 0-.3v-.5c0-.3-.1-.6-.1-.9-.1-1.1-.4-2.3-.9-3.1-.2-.4-.5-.7-.7-.9-.2-.2-.4-.2-.8-.2-.2 0-.3 0-.5.1 0 0-.1 0-.1 0 0 0 0 0 0 0-.1 0-.1.1-.2.1-.3.2-.6.6-1 1.1-.4.5-.9 1.1-1.6 1.7-.7.6-1.8 1-2.8 1-.5 0-.9 0-1.4-.1-.5-.1-.9-.2-1.4-.4-.5-.2-1-.6-1.3-1.1-.4-.5-.6-1-.8-1.5-.3-1-.2-1.9-.1-2.6 0-1.3.2-2 .4-2.7zm-6.8-4.9c-.6 1.7-1.3 3.4-2.1 5-.6 1.3-1.3 2.5-2 3.7 0 .2.1.4.1.7.5 2.7 1.1 5.4 1.4 8.1.8 5.4 2.2 16.5 2.2 22l-3-14.8c-2.7-1.4-5.5-2.8-8.2-4.2-2.7-1.5-5.4-2.9-8.1-4.6 2.8 1.3 5.6 2.5 8.5 3.7 2.4 1 4.8 1.9 7.2 2.8l-1-4.4c-.6-2.6-1.2-5.3-1.9-7.9-.6-2.6-1.3-5.3-2-7.9-.5-2-1-3.9-1.5-5.9-2.7-1.2-5.4-2.3-8.1-3.5-2.8-1.1-5.5-2.3-8.4-3.2 2.9.6 5.8 1.5 8.7 2.3 2.4.7 4.8 1.4 7.1 2.2l-2-7.6-4.3-15.8c2.6 4.8 4.6 9.9 6.5 15.1 1 2.6 1.8 5.2 2.6 7.8.8 2.6 1.5 5.3 2.2 7.9.4 1.6.8 3.2 1.2 4.8.4-.6.8-1.3 1.2-1.9.9-1.5 1.7-3.1 2.5-4.7 1.5-3.2 2.7-6.6 3.6-10.1-.3 3.5-1.2 7-2.4 10.4z"/>
      <path d="m244.8 345.8c-1.4 0-2.6 1-3.9 2.2l-.2.2c-1.7 1.5-3.2 1.5-4.1 1.3-2.2-.6-3.9-2.9-5.6-7.6-.8-2.3-2.5-5.4-4.9-9.2-.7-1.1-2.2-2.9-4.5-2.9-2.2 0-3.7 1.6-4.3 2.5-1.3 1.8-4 5.7-9.2 2.1-2.2-1.5-3.9-3.2-5.7-5-1.3-1.4-2.7-2.8-4.4-4.2-1.9-1.6-3.7-2.4-5.6-2.4-4.3 0-7.8 3.5-7.8 7.8 0 2.1.8 4 2.3 5.5 2.8 2.8 5.3 3.7 7.9 4.6.5.2 1 .4 1.5.5 3.1 1.2 4.9 3.6 4.5 6.2-.4 2.4-2.7 5-8.2 5.4-.8.1-3.3.2-3.3 3.8 0 1.5.9 2.8 2.8 4.2 2.7 2 7.7 2.8 13.7 2.3 4.2-.4 6.2 1.5 6.7 3.4.6 2.2-.8 4.5-3.3 5.7-1.6.8-2.7 2.3-2.7 3.9 0 1.2.6 2.4 2 3.7 2.5 2.3 10.7 7.2 20.8 8.5 9.3-4.2 18-9.4 26-15.4-.4-11.5-2.2-18.5-6.3-24.1-1.5-2.1-2.8-3-4.2-3zm-18.1 23.2c-3.4.8-6.8 1.7-10 3.2 3-1.8 6.4-3.1 9.8-4.2 2.8-.9 5.7-1.7 8.6-2.3-.5-.5-1-1-1.6-1.4-2.1-1.8-4.2-3.5-6.4-5.1-2.2-1.6-4.4-3.2-6.7-4.8-.3-.2-.6-.4-.9-.6-3.1 0-6.3.2-9.4.6-3.5.4-7 1-10.3 2.1 3.2-1.4 6.7-2.4 10.1-3.1 2.4-.5 4.8-.9 7.2-1.2-3.5-2.4-6.9-5-10.2-7.8-4.3-3.6-8.2-7.7-11.7-12 4.4 3.5 8.6 7 13.1 10.2 2.3 1.6 4.5 3.2 6.8 4.7 2.3 1.6 4.6 3.1 6.9 4.7 1.6 1.1 3.2 2.2 4.7 3.4-.5-2.3-.9-4.6-1.4-6.9-.8-3.5-1.6-7-2.7-10.5 1.4 3.3 2.6 6.8 3.7 10.2 1 3 1.9 5.9 2.7 8.9 2.1 1.7 4.2 3.6 6.1 5.5 3.9 4 7.4 8.9 8.8 14.4-1.9-3.6-4.3-6.8-7.1-9.6-3.4.4-6.7.9-10.1 1.6z"/>
      <path d="m650.2 322.8c-1.9 0-3.7.8-5.6 2.4-1.7 1.5-3.1 2.9-4.4 4.2-1.8 1.8-3.5 3.5-5.7 5-5.2 3.6-7.9-.3-9.2-2.1-.7-.9-2.1-2.5-4.3-2.5-2.3 0-3.9 1.8-4.5 2.9-2.4 3.8-4.1 6.9-4.9 9.2-1.7 4.7-3.4 7-5.6 7.6-1 .3-2.5.2-4.1-1.3l-.2-.2c-1.3-1.2-2.4-2.2-3.9-2.2-1.5 0-2.8.9-4.3 2.9-4.1 5.6-5.9 12.7-6.3 24.1 8 6 16.7 11.2 26 15.4 10.1-1.3 18.3-6.2 20.8-8.5 1.4-1.3 2-2.4 2-3.7 0-1.7-1-3.2-2.7-3.9-2.6-1.2-3.9-3.5-3.3-5.7.5-1.9 2.5-3.7 6.7-3.4 6 .5 11-.3 13.7-2.3 1.9-1.4 2.8-2.8 2.8-4.2 0-3.6-2.5-3.8-3.3-3.8-5.5-.4-7.8-3-8.2-5.4-.4-2.6 1.4-5 4.5-6.2.5-.2 1-.4 1.5-.5 2.6-.9 5.1-1.8 7.9-4.6 1.5-1.5 2.3-3.4 2.3-5.5 0-4.2-3.4-7.7-7.7-7.7zm-14.7 21.6c-3.3 2.8-6.7 5.3-10.2 7.8 2.4.3 4.7.7 7.1 1.2 3.5.7 6.9 1.7 10.1 3.1-3.3-1.1-6.8-1.7-10.3-2.1-3.1-.3-6.2-.5-9.2-.6-.3.2-.6.4-.9.6-2.3 1.5-4.5 3.1-6.7 4.8-2.2 1.6-4.3 3.4-6.4 5.1-.5.5-1.1 1-1.6 1.5 2.9.6 5.7 1.4 8.5 2.2 3.4 1.1 6.7 2.4 9.8 4.2-3.2-1.5-6.6-2.4-10-3.2-3.3-.7-6.6-1.2-9.9-1.6-2.8 2.8-5.3 5.9-7.1 9.6 1.4-5.5 4.8-10.3 8.8-14.4 1.8-1.9 3.8-3.7 5.9-5.4.9-3 1.8-6.1 2.8-9.1 1.1-3.4 2.3-6.9 3.7-10.2-1.1 3.4-1.9 7-2.7 10.5-.5 2.3-1 4.7-1.5 7 1.6-1.2 3.3-2.4 4.9-3.6 2.3-1.5 4.6-3.1 6.9-4.7 2.3-1.5 4.5-3.1 6.8-4.7 4.5-3.2 8.8-6.7 13.1-10.2-3.7 4.5-7.6 8.6-11.9 12.2z"/>
      <path d="m630.1 273.1l1-1.7c.6-1.1 1.2-2.2 1.7-3.3.5-1.1.8-2.2.9-3.2.1-1 0-2.1-.4-3-.8-1.9-2.5-3.4-4.5-3.7-2-.4-4.2.2-5.6 1.6-.1.1-.2.2-.2.3l-.1.1-.2.2c-.1.2-.4.5-.5.7-.4.5-.7 1-1 1.5-.6 1-1.2 2.1-1.7 3.2-.5 1.1-1 2.3-1.5 3.5-.5 1.2-1 2.4-1.6 3.7-.6 1.2-1.2 2.5-2.2 3.7-.5.6-1 1.2-1.8 1.7-.7.5-1.7.9-2.7.9-1 .1-1.9-.2-2.7-.5-.8-.3-1.4-.7-2-1.2-.7-.5-1-.8-1.5-1.1-.4-.3-.9-.5-1.3-.6-.8-.3-1.8-.2-2.7.1-.8.3-1.6 1-2.1 1.8-.3.4-.5.9-.6 1.3-.1.5-.2.9-.3 1.5-.1 1.2-.1 2.4 0 3.6.2 2.4.9 4.8 1.7 7.3l1.1 3.7c.4 1.2.8 2.4 1.2 3.6.4 1.2.9 2.5 1.2 3.8.2.7.3 1.4.4 2.1.1.8.1 1.6-.1 2.6-.1.5-.4 1-.8 1.5-.4.5-.9.8-1.3 1.1-.5.2-.9.4-1.4.4-.4.1-.9.1-1.4.1-1 0-2-.5-2.8-1-.7-.6-1.2-1.2-1.6-1.7-.4-.5-.8-.9-1-1.1-.1 0-.1-.1-.2-.1 0 0 0 0 0 0 0 0-.1 0-.1 0-.2 0-.4-.1-.5-.1-.3 0-.5.1-.8.2-.2.2-.5.5-.7.9-.5.8-.8 2-.9 3.1 0 .3-.1.6-.1.9v.5c0 .1 0 .2 0 .3 0 .5.1 1 .2 1.6.6 2.3 1.7 4.6 2.7 6.9l3.4 7c1.1 2.4 2.2 4.8 3.1 7.3.8 2.3 1.6 4.6 1.9 7.1 1.8.6 3.1 1.8 4.3 2.8l.2.2c.2.2.7.5.9.5.2-.1 1.5-.6 3.2-5.4.9-2.6 2.7-5.9 5.2-9.9 1.8-2.9 4.6-4.5 7.5-4.5 2.8 0 5.4 1.5 7.2 4 1.5 2.1 2.1 2.8 4.4 1.2.5-.4 1-.7 1.5-1.1 2.4-3 4.5-6.2 5.8-9.5.9-2.2 1.8-4.5 2-6.9.2-1.2.1-2.2-.2-3.1-.3-.9-.9-1.6-1.6-2-1.4-.8-3.6-.2-6 .8-.6.2-1.2.5-2 .7-.7.2-1.6.4-2.7.3-1.1-.1-2.2-.8-2.8-1.6-.1-.2-.3-.5-.4-.5-.2-.3-.3-.5-.4-.8-.2-.6-.3-1.2-.2-1.8.1-1.1.6-1.9 1.1-2.6.5-.7 1-1.2 1.5-1.7 1-1 2.1-1.8 3.1-2.6 2.1-1.6 4.2-3.1 6-4.8.9-.8 1.8-1.7 2.5-2.6.3-.4.7-1 1-1.4.3-.5.6-1 .8-1.4.4-.9.5-1.8.3-2.8-.2-1-.6-1.9-1.2-2.7-.6-.8-1.4-1.4-2.3-1.7-.4-.1-.9-.2-1.3-.2-.1 0-.3 0-.4 0h-.5c-.4 0-.7 0-1.1 0-.7 0-1.5 0-2.3-.2-.8-.1-1.6-.4-2.4-.9-.8-.5-1.7-1.5-1.9-2.7-.2-1.2.1-2.2.4-2.9.5-.3.8-.7 1.2-1.3zm4.8 14.4c-2.9.9-5.6 2.1-8.4 3.2-2.6 1.1-5.3 2.2-7.9 3.4-.5 2-1.1 4-1.6 6-.7 2.6-1.4 5.2-2 7.9-.7 2.6-1.3 5.3-1.9 7.9l-1 4.3c2.3-.9 4.7-1.8 7-2.7 2.9-1.2 5.7-2.3 8.5-3.7-2.6 1.6-5.3 3.1-8.1 4.6-2.6 1.4-5.3 2.8-8 4.1l-3.9 17c0-5.5 2.3-18.6 3.1-24 .4-2.7.9-5.4 1.4-8.1 0-.2.1-.3.1-.5-.8-1.3-1.5-2.6-2.1-3.9-.8-1.6-1.5-3.3-2.1-5-1.2-3.4-2.1-6.9-2.6-10.4.9 3.5 2 6.9 3.6 10.1.8 1.6 1.6 3.2 2.5 4.7.4.7.9 1.4 1.4 2.1.4-1.7.8-3.4 1.2-5 .7-2.6 1.4-5.3 2.2-7.9.8-2.6 1.7-5.2 2.6-7.8 1.9-5.1 4-10.2 6.5-15.1l-4.3 15.8-2 7.5c2.3-.7 4.6-1.4 6.9-2.1 3-.9 5.9-1.7 8.9-2.4z"/>
   </g>
</svg>
