<svg id="Lager_1" data-name="Lager 1" xmlns="http://www.w3.org/2000/svg" viewBox="0 0 441.31 441.29"><defs><style>.cls-1{fill:#fff;}.cls-2{fill:#000100;}.cls-3{fill:#6d6d6d;}.cls-4{fill:#494949;}.cls-5{fill:#2fade2;}.cls-6{fill:#1b1b1b;}.cls-7{fill:#2183c6;}.cls-8{fill:#055f9f;}</style></defs><title>spiideo_logo</title><g id="_Group_" data-name="&lt;Group&gt;"><circle id="_Path_" data-name="&lt;Path&gt;" class="cls-1" cx="220.29" cy="220.71" r="220.29"/><g id="_Group_2" data-name="&lt;Group&gt;"><g id="_Group_3" data-name="&lt;Group&gt;"><path id="_Path_2" data-name="&lt;Path&gt;" class="cls-2" d="M124,328.34c.32.23.66.47,1.05.72a738.57,738.57,0,0,0,89.61-48c-8-5-16-9.93-24.21-14.67a745.05,745.05,0,0,0-70.24-35.65c-.2,7-.33,14.12-.33,21.19A714.28,714.28,0,0,0,124,328.34Z" transform="translate(-35.4 -31.46)"/><path id="_Path_3" data-name="&lt;Path&gt;" class="cls-2" d="M388.14,175.86c-.34-.23-.65-.47-1-.7a731,731,0,0,0-89.73,48c7.91,4.94,15.91,9.85,24.05,14.57a741.18,741.18,0,0,0,70.42,35.69c.2-7,.33-14.08.33-21.15A716.46,716.46,0,0,0,388.14,175.86Z" transform="translate(-35.4 -31.46)"/><path id="_Path_4" data-name="&lt;Path&gt;" class="cls-3" d="M124.46,328.05a703,703,0,0,1-87.9-76c-.34-.38-.76-.76-1.12-1.17,0,.39,0,.78,0,1.17s0,.78,0,1.17A220.52,220.52,0,0,0,144.72,442.59c.55-.16,1.05-.3,1.58-.43,18.33-4.7,38.47-7.86,56.56-14.12,18.53-6.4,35-16,53.18-24a711,711,0,0,1-67.82-34.41A716.25,716.25,0,0,1,124.46,328.05Z" transform="translate(-35.4 -31.46)"/><path id="_Path_5" data-name="&lt;Path&gt;" class="cls-4" d="M323.86,369.6A712,712,0,0,1,256,404a700.39,700.39,0,0,1-109.74,38.15c-.53.13-1,.27-1.58.43.69.38,1.35.75,2,1.15a220.45,220.45,0,0,0,218.62,0c.16-.53.27-1.07.41-1.58,10.74-38.44,13.86-38.09,18.9-66.31,2.85-16,1.21-31.4,3-47.8A717.2,717.2,0,0,1,323.86,369.6Z" transform="translate(-35.4 -31.46)"/><path id="_Path_6" data-name="&lt;Path&gt;" class="cls-5" d="M476.66,250.93A220.54,220.54,0,0,0,367.35,61.61l-1.57.43c-17.43,4.46-37.93,7.37-55.16,13.23C291.17,81.92,275.1,91.76,256,100.16a719.9,719.9,0,0,1,67.82,34.44,717.07,717.07,0,0,1,63.76,41.55,703.82,703.82,0,0,1,87.91,75.94c.36.4.77.78,1.13,1.18,0-.39,0-.78,0-1.18S476.66,251.34,476.66,250.93Z" transform="translate(-35.4 -31.46)"/><path id="_Path_7" data-name="&lt;Path&gt;" class="cls-6" d="M387.62,176.15a707.71,707.71,0,0,1,4.09,75.94,707.82,707.82,0,0,1-4.09,76,701,701,0,0,1-21.86,114.11c-.14.51-.25,1.05-.41,1.58.66-.4,1.34-.77,2-1.15A220.54,220.54,0,0,0,476.66,253.27c-.36-.39-.77-.78-1.13-1.18A703.82,703.82,0,0,0,387.62,176.15Z" transform="translate(-35.4 -31.46)"/><path id="_Path_8" data-name="&lt;Path&gt;" class="cls-7" d="M365.35,60.47a220.45,220.45,0,0,0-218.62,0c-.16.53-.3,1.05-.43,1.56-5,18-11.77,35.88-15.37,54.42-3.78,19.51-4.29,39.62-6.47,59.71a707.74,707.74,0,0,1,131.58-76A704.23,704.23,0,0,1,365.78,62l1.57-.43C366.69,61.25,366,60.87,365.35,60.47Z" transform="translate(-35.4 -31.46)"/><path id="_Path_9" data-name="&lt;Path&gt;" class="cls-8" d="M124.46,328.05a712.39,712.39,0,0,1,0-151.9A706.08,706.08,0,0,1,146.31,62c.13-.51.27-1,.43-1.56-.66.4-1.32.79-2,1.15A220.51,220.51,0,0,0,35.45,250.93c.36.41.77.78,1.12,1.17A703,703,0,0,0,124.46,328.05Z" transform="translate(-35.4 -31.46)"/></g></g></g></svg>